<?xml version="1.0" encoding="UTF-8" standalone="no"?><!DOCTYPE svg PUBLIC "-//W3C//DTD SVG 1.1//EN" "http://www.w3.org/Graphics/SVG/1.1/DTD/svg11.dtd"><svg width="100%" height="100%" viewBox="0 0 830 550" version="1.1" xmlns="http://www.w3.org/2000/svg" xmlns:xlink="http://www.w3.org/1999/xlink" xml:space="preserve" xmlns:serif="http://www.serif.com/" style="fill-rule:evenodd;clip-rule:evenodd;stroke-linecap:round;stroke-linejoin:round;stroke-miterlimit:1.5;"><path d="M446.929,239.96l-12.877,-21.96l25.755,0l-12.878,21.96Z" style="fill:none;stroke:#1da72a;stroke-width:3px;"/><path d="M481.271,239.96l-12.878,-21.96l25.756,0l-12.878,21.96Z" style="fill:#4900ff;stroke:#4900ff;stroke-width:3px;"/><path d="M380.823,239.96l-12.878,-21.96l25.756,0l-12.878,21.96Z" style="fill:none;stroke:#f00;stroke-width:3px;"/><path d="M415.164,239.96l-12.878,-21.96l25.756,0l-12.878,21.96Z" style="fill:none;stroke:#f6d14e;stroke-width:3px;"/><path d="M519.005,389c0,-20.421 -16.579,-37 -37,-37l-95.25,0c-20.421,0 -37,16.579 -37,37l0,74c0,20.421 16.579,37 37,37l95.25,0c20.421,0 37,-16.579 37,-37l0,-74Z" style="fill:#ebebeb;"/><path d="M332.713,116.158l9,4.5l-9,4.5l0,-9Z"/><path d="M162.713,120.658l171.8,0" style="fill:none;stroke:#000;stroke-width:3px;"/><path d="M527,220.5l-9,4.5l9,4.5l0,-9Z"/><path d="M525.2,225l187.8,0" style="fill:none;stroke:#000;stroke-width:3px;"/><path d="M438.88,328l-4.5,9l-4.5,-9l9,0Z"/><path d="M434.38,275l0,54.8" style="fill:none;stroke:#000;stroke-width:3px;"/><text x="42.463px" y="49.107px" style="font-family:'OpenSans', 'Open Sans', sans-serif;font-size:24px;">Data</text><text x="206.429px" y="108.582px" style="font-family:'OpenSans', 'Open Sans', sans-serif;font-size:24px;">Sorting</text><text x="752.82px" y="296.133px" style="font-family:'OpenSans', 'Open Sans', sans-serif;font-size:24px;">User</text><text x="393.997px" y="529.27px" style="font-family:'OpenSans', 'Open Sans', sans-serif;font-size:24px;">Output</text><circle cx="779.423" cy="170.104" r="24.423" style="fill:none;stroke:#000;stroke-width:3px;"/><path d="M812,218.528c0,-3.979 -1.58,-7.794 -4.393,-10.607c-2.813,-2.813 -6.629,-4.393 -10.607,-4.393c-10.771,0 -25.229,0 -36,0c-3.978,0 -7.794,1.58 -10.607,4.393c-2.813,2.813 -4.393,6.628 -4.393,10.607c0,18.633 0,48 0,48l66,0l0,-48Z" style="fill:none;stroke:#000;stroke-width:3px;"/><g><circle cx="30.047" cy="75.658" r="10" style="fill:#ed2121;"/><circle cx="56.713" cy="75.658" r="10" style="fill:#f6d14e;"/><circle cx="83.38" cy="75.658" r="10" style="fill:#1da72a;"/><circle cx="110.047" cy="75.658" r="10" style="fill:#4900ff;"/><circle cx="30.047" cy="135.658" r="10" style="fill:#ed2121;"/><circle cx="56.713" cy="135.658" r="10" style="fill:#f6d14e;"/><circle cx="83.38" cy="135.658" r="10" style="fill:#1da72a;"/><circle cx="110.047" cy="135.658" r="10" style="fill:#4900ff;"/><circle cx="56.713" cy="165.658" r="10" style="fill:#ed2121;"/><circle cx="30.047" cy="165.658" r="10" style="fill:#f6d14e;"/><circle cx="110.047" cy="165.658" r="10" style="fill:#1da72a;"/><circle cx="83.38" cy="165.658" r="10" style="fill:#4900ff;"/><circle cx="110.047" cy="105.658" r="10" style="fill:#ed2121;"/><circle cx="83.38" cy="105.658" r="10" style="fill:#f6d14e;"/><circle cx="56.713" cy="105.658" r="10" style="fill:#1da72a;"/><circle cx="30.047" cy="105.658" r="10" style="fill:#4900ff;"/></g><g><circle cx="394.38" cy="381" r="10" style="fill:#fff;"/><circle cx="421.047" cy="381" r="10" style="fill:#fff;"/><circle cx="447.713" cy="381" r="10" style="fill:#fff;"/><circle cx="474.38" cy="381" r="10" style="fill:#4900ff;"/><circle cx="394.38" cy="441" r="10" style="fill:#fff;"/><circle cx="421.047" cy="441" r="10" style="fill:#fff;"/><circle cx="447.713" cy="441" r="10" style="fill:#fff;"/><circle cx="474.38" cy="441" r="10" style="fill:#4900ff;"/><circle cx="421.047" cy="471" r="10" style="fill:#fff;"/><circle cx="394.38" cy="471" r="10" style="fill:#fff;"/><circle cx="474.38" cy="471" r="10" style="fill:#fff;"/><circle cx="447.713" cy="471" r="10" style="fill:#4900ff;"/><circle cx="474.38" cy="411" r="10" style="fill:#fff;"/><circle cx="447.713" cy="411" r="10" style="fill:#fff;"/><circle cx="421.047" cy="411" r="10" style="fill:#fff;"/><circle cx="394.38" cy="411" r="10" style="fill:#4900ff;"/></g><g><circle cx="381.38" cy="75.658" r="10" style="fill:#ed2121;"/><circle cx="415.047" cy="75.658" r="10" style="fill:#f6d14e;"/><circle cx="447.713" cy="75.658" r="10" style="fill:#1da72a;"/><circle cx="480.38" cy="108.658" r="10" style="fill:#4900ff;"/><circle cx="381.38" cy="135.658" r="10" style="fill:#ed2121;"/><circle cx="415.047" cy="135.658" r="10" style="fill:#f6d14e;"/><circle cx="447.713" cy="135.658" r="10" style="fill:#1da72a;"/><circle cx="480.38" cy="168.658" r="10" style="fill:#4900ff;"/><circle cx="381.38" cy="165.658" r="10" style="fill:#ed2121;"/><circle cx="415.047" cy="165.658" r="10" style="fill:#f6d14e;"/><circle cx="447.713" cy="165.658" r="10" style="fill:#1da72a;"/><circle cx="480.38" cy="198.658" r="10" style="fill:#4900ff;"/><circle cx="381.38" cy="105.658" r="10" style="fill:#ed2121;"/><circle cx="415.047" cy="105.658" r="10" style="fill:#f6d14e;"/><circle cx="447.713" cy="105.658" r="10" style="fill:#1da72a;"/><circle cx="480.38" cy="138.658" r="10" style="fill:#4900ff;"/></g><path d="M321,421.5l9,4.5l-9,4.5l0,-9Z"/><path d="M69,198.658l0,227.342l253.8,0" style="fill:none;stroke:#000;stroke-width:3px;"/></svg>