<svg width="350" height="336" viewBox="0 0 350 336" fill="none" xmlns="http://www.w3.org/2000/svg">
<path d="M161.186 25.8594C160.639 26.1484 159.815 26.293 158.713 26.293C156.104 26.293 154.799 24.9375 154.799 22.2266V16.7305H152.854V14H154.799V11.4102L158.491 10.3555V14H161.186V16.7305H158.491V21.582C158.491 22.832 158.987 23.457 159.979 23.457C160.37 23.457 160.772 23.3438 161.186 23.1172V25.8594ZM172.312 17.3398C171.866 17.0977 171.347 16.9766 170.753 16.9766C169.948 16.9766 169.32 17.2734 168.866 17.8672C168.413 18.4531 168.187 19.2539 168.187 20.2695V26H164.484V14H168.187V16.2266H168.234C168.82 14.6016 169.874 13.7891 171.398 13.7891C171.788 13.7891 172.093 13.8359 172.312 13.9297V17.3398ZM186.719 26H183.027V24.1719H182.969C182.055 25.5859 180.832 26.293 179.301 26.293C176.52 26.293 175.129 24.6094 175.129 21.2422V14H178.82V20.9141C178.82 22.6094 179.492 23.457 180.836 23.457C181.5 23.457 182.031 23.2266 182.43 22.7656C182.828 22.2969 183.027 21.6641 183.027 20.8672V14H186.719V26ZM190.262 25.6836V22.6836C190.872 23.0508 191.477 23.3242 192.079 23.5039C192.688 23.6836 193.262 23.7734 193.802 23.7734C194.458 23.7734 194.973 23.6836 195.348 23.5039C195.731 23.3242 195.923 23.0508 195.923 22.6836C195.923 22.4492 195.837 22.2539 195.665 22.0977C195.493 21.9414 195.27 21.8047 194.997 21.6875C194.731 21.5703 194.438 21.4648 194.118 21.3711C193.798 21.2773 193.489 21.1719 193.192 21.0547C192.716 20.875 192.294 20.6836 191.927 20.4805C191.567 20.2695 191.262 20.0273 191.012 19.7539C190.77 19.4805 190.583 19.1641 190.45 18.8047C190.325 18.4453 190.262 18.0195 190.262 17.5273C190.262 16.8555 190.407 16.2773 190.696 15.793C190.993 15.3086 191.384 14.9141 191.868 14.6094C192.36 14.2969 192.919 14.0703 193.544 13.9297C194.177 13.7812 194.833 13.707 195.512 13.707C196.044 13.707 196.583 13.75 197.13 13.8359C197.677 13.9141 198.216 14.0312 198.747 14.1875V17.0469C198.278 16.7734 197.774 16.5703 197.235 16.4375C196.704 16.2969 196.18 16.2266 195.665 16.2266C195.423 16.2266 195.192 16.25 194.973 16.2969C194.762 16.3359 194.575 16.3984 194.411 16.4844C194.247 16.5625 194.118 16.668 194.024 16.8008C193.93 16.9258 193.884 17.0703 193.884 17.2344C193.884 17.4531 193.954 17.6406 194.095 17.7969C194.235 17.9531 194.419 18.0898 194.645 18.207C194.872 18.3164 195.122 18.418 195.395 18.5117C195.677 18.5977 195.954 18.6875 196.227 18.7812C196.72 18.9531 197.165 19.1406 197.563 19.3438C197.962 19.5469 198.302 19.7852 198.583 20.0586C198.872 20.332 199.091 20.6523 199.239 21.0195C199.395 21.3867 199.473 21.8242 199.473 22.332C199.473 23.043 199.317 23.6523 199.005 24.1602C198.7 24.6602 198.29 25.0703 197.774 25.3906C197.266 25.7031 196.677 25.9297 196.005 26.0703C195.341 26.2188 194.649 26.293 193.93 26.293C192.61 26.293 191.387 26.0898 190.262 25.6836ZM210.072 25.8594C209.525 26.1484 208.701 26.293 207.599 26.293C204.99 26.293 203.685 24.9375 203.685 22.2266V16.7305H201.74V14H203.685V11.4102L207.377 10.3555V14H210.072V16.7305H207.377V21.582C207.377 22.832 207.873 23.457 208.865 23.457C209.255 23.457 209.658 23.3438 210.072 23.1172V25.8594Z" fill="black"/>
<path d="M256.734 203.102C256.109 203.102 255.597 202.918 255.198 202.551C254.8 202.176 254.601 201.719 254.601 201.18C254.601 200.625 254.8 200.172 255.198 199.82C255.597 199.469 256.109 199.293 256.734 199.293C257.366 199.293 257.878 199.469 258.269 199.82C258.667 200.172 258.866 200.625 258.866 201.18C258.866 201.742 258.667 202.203 258.269 202.562C257.878 202.922 257.366 203.102 256.734 203.102ZM258.562 217H254.859V205H258.562V217ZM274.621 217H270.918V215.348H270.871C270.027 216.645 268.789 217.293 267.156 217.293C265.656 217.293 264.449 216.766 263.535 215.711C262.621 214.648 262.164 213.168 262.164 211.27C262.164 209.285 262.668 207.695 263.676 206.5C264.684 205.305 266.004 204.707 267.637 204.707C269.184 204.707 270.262 205.262 270.871 206.371H270.918V199.234H274.621V217ZM270.988 211.164V210.262C270.988 209.48 270.762 208.832 270.309 208.316C269.855 207.801 269.266 207.543 268.539 207.543C267.719 207.543 267.078 207.867 266.617 208.516C266.156 209.156 265.926 210.039 265.926 211.164C265.926 212.219 266.148 213.031 266.594 213.602C267.039 214.172 267.656 214.457 268.445 214.457C269.195 214.457 269.805 214.156 270.273 213.555C270.75 212.953 270.988 212.156 270.988 211.164ZM289.72 212.055H281.891C282.016 213.797 283.114 214.668 285.184 214.668C286.505 214.668 287.665 214.355 288.665 213.73V216.402C287.555 216.996 286.114 217.293 284.341 217.293C282.403 217.293 280.899 216.758 279.829 215.688C278.759 214.609 278.223 213.109 278.223 211.188C278.223 209.195 278.802 207.617 279.958 206.453C281.114 205.289 282.536 204.707 284.223 204.707C285.973 204.707 287.325 205.227 288.278 206.266C289.239 207.305 289.72 208.715 289.72 210.496V212.055ZM286.286 209.781C286.286 208.062 285.591 207.203 284.2 207.203C283.606 207.203 283.091 207.449 282.653 207.941C282.223 208.434 281.962 209.047 281.868 209.781H286.286ZM304.712 217H301.021V210.332C301.021 208.473 300.357 207.543 299.029 207.543C298.388 207.543 297.861 207.789 297.447 208.281C297.033 208.773 296.826 209.398 296.826 210.156V217H293.123V205H296.826V206.898H296.873C297.755 205.438 299.041 204.707 300.728 204.707C303.384 204.707 304.712 206.355 304.712 209.652V217ZM316.108 216.859C315.561 217.148 314.737 217.293 313.635 217.293C311.026 217.293 309.721 215.938 309.721 213.227V207.73H307.776V205H309.721V202.41L313.412 201.355V205H316.108V207.73H313.412V212.582C313.412 213.832 313.909 214.457 314.901 214.457C315.291 214.457 315.694 214.344 316.108 214.117V216.859ZM321.28 203.102C320.655 203.102 320.144 202.918 319.745 202.551C319.347 202.176 319.148 201.719 319.148 201.18C319.148 200.625 319.347 200.172 319.745 199.82C320.144 199.469 320.655 199.293 321.28 199.293C321.913 199.293 322.425 199.469 322.816 199.82C323.214 200.172 323.413 200.625 323.413 201.18C323.413 201.742 323.214 202.203 322.816 202.562C322.425 202.922 321.913 203.102 321.28 203.102ZM323.109 217H319.405V205H323.109V217ZM335.254 202.07C334.777 201.883 334.32 201.789 333.883 201.789C332.695 201.789 332.102 202.434 332.102 203.723V205H334.844V207.73H332.102V217H328.41V207.73H326.395V205H328.41V203.512C328.41 202.145 328.855 201.043 329.746 200.207C330.637 199.371 331.848 198.953 333.379 198.953C334.129 198.953 334.754 199.031 335.254 199.188V202.07ZM349.755 205L344.88 217.961C343.708 221.078 341.942 222.637 339.583 222.637C338.684 222.637 337.946 222.535 337.368 222.332V219.379C337.86 219.668 338.395 219.812 338.973 219.812C339.927 219.812 340.591 219.363 340.966 218.465L341.598 216.977L336.723 205H340.825L343.063 212.301C343.204 212.754 343.313 213.289 343.391 213.906H343.438C343.509 213.453 343.637 212.926 343.825 212.324L346.087 205H349.755Z" fill="black"/>
<path d="M13.4164 212.055H5.58828C5.71328 213.797 6.81094 214.668 8.88125 214.668C10.2016 214.668 11.3617 214.355 12.3617 213.73V216.402C11.2523 216.996 9.81094 217.293 8.0375 217.293C6.1 217.293 4.59609 216.758 3.52578 215.688C2.45547 214.609 1.92031 213.109 1.92031 211.188C1.92031 209.195 2.49844 207.617 3.65469 206.453C4.81094 205.289 6.23281 204.707 7.92031 204.707C9.67031 204.707 11.0219 205.227 11.975 206.266C12.9359 207.305 13.4164 208.715 13.4164 210.496V212.055ZM9.98281 209.781C9.98281 208.062 9.2875 207.203 7.89687 207.203C7.30312 207.203 6.7875 207.449 6.35 207.941C5.92031 208.434 5.65859 209.047 5.56484 209.781H9.98281ZM35.8742 217H32.1828V210.156C32.1828 208.414 31.5422 207.543 30.2609 207.543C29.6516 207.543 29.1555 207.805 28.7727 208.328C28.3898 208.852 28.1984 209.504 28.1984 210.285V217H24.4953V210.086C24.4953 208.391 23.8664 207.543 22.6086 207.543C21.9758 207.543 21.468 207.793 21.0852 208.293C20.7102 208.793 20.5227 209.473 20.5227 210.332V217H16.8195V205H20.5227V206.875H20.5695C20.9523 206.234 21.4875 205.715 22.175 205.316C22.8703 204.91 23.6281 204.707 24.4484 204.707C26.1437 204.707 27.3039 205.453 27.9289 206.945C28.843 205.453 30.1867 204.707 31.9602 204.707C34.5695 204.707 35.8742 206.316 35.8742 209.535V217ZM43.7539 215.605H43.707V222.52H40.0039V205H43.707V206.805H43.7539C44.668 205.406 45.9531 204.707 47.6094 204.707C49.1641 204.707 50.3633 205.242 51.207 206.312C52.0586 207.375 52.4844 208.824 52.4844 210.66C52.4844 212.66 51.9883 214.266 50.9961 215.477C50.0117 216.688 48.6992 217.293 47.0586 217.293C45.6133 217.293 44.5117 216.73 43.7539 215.605ZM43.6484 210.684V211.645C43.6484 212.473 43.8672 213.148 44.3047 213.672C44.7422 214.195 45.3164 214.457 46.0273 214.457C46.8711 214.457 47.5234 214.133 47.9844 213.484C48.4531 212.828 48.6875 211.902 48.6875 210.707C48.6875 208.598 47.8672 207.543 46.2266 207.543C45.4688 207.543 44.8477 207.832 44.3633 208.41C43.8867 208.98 43.6484 209.738 43.6484 210.684ZM65.8367 217H62.3328V215.277H62.2859C61.4812 216.621 60.2898 217.293 58.7117 217.293C57.5477 217.293 56.6297 216.965 55.9578 216.309C55.2937 215.645 54.9617 214.762 54.9617 213.66C54.9617 211.332 56.3406 209.988 59.0984 209.629L62.3562 209.195C62.3562 207.883 61.6453 207.227 60.2234 207.227C58.7937 207.227 57.4344 207.652 56.1453 208.504V205.715C56.6609 205.449 57.3641 205.215 58.2547 205.012C59.1531 204.809 59.9695 204.707 60.7039 204.707C64.1258 204.707 65.8367 206.414 65.8367 209.828V217ZM62.3562 212.125V211.316L60.1766 211.598C58.9734 211.754 58.3719 212.297 58.3719 213.227C58.3719 213.648 58.5164 213.996 58.8055 214.27C59.1023 214.535 59.5008 214.668 60.0008 214.668C60.6961 214.668 61.2625 214.43 61.7 213.953C62.1375 213.469 62.3562 212.859 62.3562 212.125ZM77.2203 216.859C76.6734 217.148 75.8492 217.293 74.7477 217.293C72.1383 217.293 70.8336 215.938 70.8336 213.227V207.73H68.8883V205H70.8336V202.41L74.525 201.355V205H77.2203V207.73H74.525V212.582C74.525 213.832 75.0211 214.457 76.0133 214.457C76.4039 214.457 76.8063 214.344 77.2203 214.117V216.859ZM92.0375 217H88.3461V210.18C88.3461 208.422 87.7055 207.543 86.4242 207.543C85.768 207.543 85.2367 207.789 84.8305 208.281C84.4242 208.773 84.2211 209.398 84.2211 210.156V217H80.518V199.234H84.2211V206.781H84.268C85.1742 205.398 86.4047 204.707 87.9594 204.707C90.6781 204.707 92.0375 206.348 92.0375 209.629V217ZM106.96 212.055H99.132C99.257 213.797 100.355 214.668 102.425 214.668C103.745 214.668 104.905 214.355 105.905 213.73V216.402C104.796 216.996 103.355 217.293 101.581 217.293C99.6437 217.293 98.1398 216.758 97.0695 215.688C95.9992 214.609 95.4641 213.109 95.4641 211.188C95.4641 209.195 96.0422 207.617 97.1984 206.453C98.3547 205.289 99.7766 204.707 101.464 204.707C103.214 204.707 104.566 205.227 105.519 206.266C106.48 207.305 106.96 208.715 106.96 210.496V212.055ZM103.527 209.781C103.527 208.062 102.831 207.203 101.441 207.203C100.847 207.203 100.331 207.449 99.8937 207.941C99.4641 208.434 99.2023 209.047 99.1086 209.781H103.527ZM117.617 216.859C117.07 217.148 116.246 217.293 115.145 217.293C112.535 217.293 111.23 215.938 111.23 213.227V207.73H109.285V205H111.23V202.41L114.922 201.355V205H117.617V207.73H114.922V212.582C114.922 213.832 115.418 214.457 116.41 214.457C116.801 214.457 117.203 214.344 117.617 214.117V216.859ZM122.79 203.102C122.165 203.102 121.653 202.918 121.255 202.551C120.856 202.176 120.657 201.719 120.657 201.18C120.657 200.625 120.856 200.172 121.255 199.82C121.653 199.469 122.165 199.293 122.79 199.293C123.423 199.293 123.934 199.469 124.325 199.82C124.723 200.172 124.923 200.625 124.923 201.18C124.923 201.742 124.723 202.203 124.325 202.562C123.934 202.922 123.423 203.102 122.79 203.102ZM124.618 217H120.915V205H124.618V217ZM138.029 216.566C137.193 217.051 135.986 217.293 134.408 217.293C132.564 217.293 131.072 216.734 129.931 215.617C128.791 214.5 128.22 213.059 128.22 211.293C128.22 209.254 128.83 207.648 130.048 206.477C131.275 205.297 132.912 204.707 134.959 204.707C136.373 204.707 137.396 204.895 138.029 205.27V208.41C137.255 207.832 136.392 207.543 135.439 207.543C134.377 207.543 133.533 207.855 132.908 208.48C132.291 209.098 131.982 209.953 131.982 211.047C131.982 212.109 132.279 212.945 132.873 213.555C133.466 214.156 134.283 214.457 135.322 214.457C136.244 214.457 137.146 214.168 138.029 213.59V216.566Z" fill="black"/>
<path d="M230.254 19.7002C230.262 19.7029 230.271 19.7057 230.279 19.7085C231.221 20.0191 232.159 20.3398 233.093 20.6707C262.73 31.175 287.742 51.82 303.672 79.0038C319.602 106.188 325.388 138.1 320.067 169.09C319.899 170.068 319.72 171.045 319.53 172.021C319.528 172.028 319.527 172.034 319.526 172.041" stroke="black" stroke-width="3"/>
<path d="M270.657 252.899C270.651 252.905 270.644 252.911 270.638 252.917C269.914 253.596 269.184 254.266 268.447 254.928C245.041 275.924 214.944 288.008 183.452 288.988C151.959 289.967 121.17 279.776 96.5046 260.275C95.7261 259.659 94.9537 259.034 94.1876 258.4C94.1824 258.396 94.1774 258.392 94.1723 258.388" stroke="black" stroke-width="3"/>
<path d="M47.1748 170.863C47.1732 170.855 47.1716 170.846 47.17 170.837C46.9884 169.862 46.8178 168.885 46.6583 167.908C41.5936 136.875 47.6431 105.012 63.7971 77.9608C79.9511 50.9096 105.134 30.4721 134.856 20.2131C135.795 19.8893 136.737 19.5757 137.684 19.2722C137.691 19.2702 137.697 19.2682 137.703 19.2662" stroke="black" stroke-width="3"/>
</svg>
