<svg width="73" height="90" viewBox="0 0 73 90" fill="none" xmlns="http://www.w3.org/2000/svg">
<path fill-rule="evenodd" clip-rule="evenodd" d="M51.1249 90H8.64332C3.86833 90 0 86.13 0 81.3567V21.1734C0 16.4001 3.86833 12.5301 8.64332 12.5301H28.1133C29.9533 12.5301 31.4466 14.0235 31.4466 15.8635C31.4466 17.7034 29.9533 19.1968 28.1133 19.1968H8.64332C7.55165 19.1968 6.66666 20.0818 6.66666 21.1734V81.3567C6.66666 82.4483 7.55165 83.3333 8.64332 83.3333H51.1249C52.2166 83.3333 53.1016 82.4483 53.1016 81.3567V44.1851C53.1016 42.3451 54.5949 40.8518 56.4349 40.8518C58.2749 40.8518 59.7682 42.3451 59.7682 44.1851V81.3567C59.7682 86.13 55.8982 90 51.1249 90ZM44.9199 74.13H14.8483C13.0083 74.13 11.515 72.635 11.515 70.7967C11.515 68.9567 13.0083 67.4634 14.8483 67.4634H44.9199C46.7599 67.4634 48.2533 68.9567 48.2533 70.7967C48.2533 72.635 46.7599 74.13 44.9199 74.13ZM44.9199 59.3034H14.8483C13.0083 59.3034 11.515 57.8101 11.515 55.9701C11.515 54.1301 13.0083 52.6367 14.8483 52.6367H44.9199C46.7599 52.6367 48.2533 54.1301 48.2533 55.9701C48.2533 57.8101 46.7599 59.3034 44.9199 59.3034ZM53.1016 3.33347C53.1032 2.94347 53.1699 2.55514 53.3049 2.18847C53.5516 1.51347 54.0199 0.928475 54.6216 0.536809C54.8949 0.360143 55.1916 0.223476 55.5033 0.13181C55.8533 0.0301433 56.2199 -0.0131899 56.5849 0.00347669C56.9649 0.0201433 57.3416 0.10181 57.6949 0.24681C58.0799 0.403476 58.4332 0.633476 58.7349 0.921809C59.0499 1.22181 59.3049 1.58347 59.4816 1.98014C59.6716 2.40681 59.7666 2.86847 59.7682 3.33347V12.5301H68.9649C70.8049 12.5301 72.2982 14.0235 72.2982 15.8635C72.2982 17.7034 70.8049 19.1968 68.9649 19.1968H59.7682V28.3934C59.7666 28.8584 59.6716 29.3218 59.4816 29.7468C59.3049 30.1434 59.0499 30.5051 58.7349 30.8068C58.4332 31.0934 58.0799 31.3234 57.6949 31.4801C57.3416 31.6251 56.9649 31.7068 56.5849 31.7234C56.2199 31.7401 55.8533 31.6968 55.5033 31.5951C55.1916 31.5034 54.8949 31.3668 54.6216 31.1901C54.0199 30.8001 53.5516 30.2134 53.3049 29.5401C53.1699 29.1718 53.1032 28.7834 53.1016 28.3934L53.0516 19.2468L43.9049 19.1968C43.4399 19.1951 42.9783 19.1001 42.5516 18.9101C42.1549 18.7334 41.7933 18.4784 41.4933 18.1634C41.2049 17.8618 40.9749 17.5084 40.8183 17.1235C40.6749 16.7701 40.5916 16.3935 40.5749 16.0135C40.5583 15.6485 40.6016 15.2818 40.7033 14.9318C40.7949 14.6201 40.9316 14.3218 41.1083 14.0501C41.4999 13.4485 42.0849 12.9801 42.7599 12.7335C43.1266 12.5985 43.5149 12.5318 43.9049 12.5301L53.0483 12.6035L53.1016 3.33347V3.33347Z" fill="white"/>
</svg>
