<svg width="745" height="152" viewBox="0 0 745 152" fill="none" xmlns="http://www.w3.org/2000/svg">
<path d="M25.9863 46.748C25.8724 47.2526 25.7585 47.863 25.6445 48.5791C25.5469 49.2952 25.4492 50.0439 25.3516 50.8252C25.2702 51.5902 25.1969 52.347 25.1318 53.0957C25.083 53.8281 25.0586 54.4629 25.0586 55H17.2461C17.2461 54.7721 17.2542 54.471 17.2705 54.0967C17.3031 53.7061 17.3356 53.3073 17.3682 52.9004C17.417 52.4935 17.4577 52.1029 17.4902 51.7285C17.5391 51.3379 17.5716 51.0286 17.5879 50.8008H17.4902C16.9857 51.5169 16.4567 52.168 15.9033 52.7539C15.3662 53.3398 14.7803 53.8444 14.1455 54.2676C13.527 54.6908 12.8516 55.0163 12.1191 55.2441C11.3867 55.4883 10.5811 55.6104 9.70215 55.6104C8.49772 55.6104 7.41536 55.3988 6.45508 54.9756C5.51107 54.5524 4.7054 53.9421 4.03809 53.1445C3.37077 52.3307 2.85807 51.3298 2.5 50.1416C2.1582 48.9372 1.9873 47.57 1.9873 46.04C1.9873 43.8428 2.35352 41.7432 3.08594 39.7412C3.81836 37.723 4.8763 35.9489 6.25977 34.4189C7.65951 32.889 9.36035 31.6683 11.3623 30.7568C13.3643 29.8454 15.6429 29.3896 18.1982 29.3896C18.8493 29.3896 19.5085 29.4222 20.1758 29.4873C20.8594 29.5524 21.4128 29.6257 21.8359 29.707L24.3506 17.9883H32.041L25.9863 46.748ZM20.7373 35.1025C20.363 35.0049 19.9479 34.9316 19.4922 34.8828C19.0527 34.834 18.6214 34.8096 18.1982 34.8096C17.0752 34.8096 16.0905 34.9967 15.2441 35.3711C14.3978 35.7454 13.6572 36.2419 13.0225 36.8604C12.404 37.4626 11.8831 38.1543 11.46 38.9355C11.0368 39.7005 10.695 40.4818 10.4346 41.2793C10.1904 42.0605 10.0114 42.8255 9.89746 43.5742C9.7998 44.3066 9.75098 44.9495 9.75098 45.5029C9.75098 46.1051 9.81608 46.6667 9.94629 47.1875C10.0765 47.6921 10.2637 48.1315 10.5078 48.5059C10.7682 48.8802 11.0938 49.1732 11.4844 49.3848C11.8913 49.5964 12.3633 49.7021 12.9004 49.7021C13.7956 49.7021 14.5931 49.4417 15.293 48.9209C16.0091 48.3838 16.6357 47.6921 17.1729 46.8457C17.7262 45.9831 18.1901 45.0228 18.5645 43.9648C18.9388 42.8906 19.248 41.8164 19.4922 40.7422L20.7373 35.1025ZM58.125 46.748C58.0111 47.2526 57.8971 47.863 57.7832 48.5791C57.6855 49.2952 57.5879 50.0439 57.4902 50.8252C57.4089 51.5902 57.3356 52.347 57.2705 53.0957C57.2217 53.8281 57.1973 54.4629 57.1973 55H49.3848C49.3848 54.7559 49.3929 54.4466 49.4092 54.0723C49.4417 53.6816 49.4743 53.291 49.5068 52.9004C49.5394 52.4935 49.5719 52.1029 49.6045 51.7285C49.6533 51.3379 49.694 51.0124 49.7266 50.752H49.6289C49.1569 51.3867 48.6686 51.9971 48.1641 52.583C47.6595 53.1689 47.098 53.6898 46.4795 54.1455C45.861 54.585 45.1693 54.9349 44.4043 55.1953C43.6556 55.472 42.7848 55.6104 41.792 55.6104C40.5713 55.6104 39.4808 55.3906 38.5205 54.9512C37.5765 54.5117 36.779 53.877 36.1279 53.0469C35.4769 52.2168 34.9805 51.2077 34.6387 50.0195C34.2969 48.8151 34.126 47.4561 34.126 45.9424C34.126 45.1774 34.2074 44.2415 34.3701 43.1348C34.5492 42.0117 34.8584 40.8398 35.2979 39.6191C35.7536 38.3822 36.3802 37.1615 37.1777 35.957C37.9753 34.7363 38.9925 33.6377 40.2295 32.6611C41.4827 31.6846 42.9883 30.8952 44.7461 30.293C46.5202 29.6908 48.6035 29.3896 50.9961 29.3896C51.9238 29.3896 52.8516 29.4303 53.7793 29.5117C54.7233 29.5768 55.6429 29.6745 56.5381 29.8047C57.4495 29.9186 58.3285 30.057 59.1748 30.2197C60.0212 30.3825 60.8105 30.5452 61.543 30.708L58.125 46.748ZM52.876 35.0537C52.5016 34.9723 52.0866 34.9154 51.6309 34.8828C51.1751 34.834 50.7438 34.8096 50.3369 34.8096C49.2139 34.8096 48.2292 34.9967 47.3828 35.3711C46.5365 35.7454 45.7959 36.2337 45.1611 36.8359C44.5426 37.4382 44.0218 38.1217 43.5986 38.8867C43.1755 39.6517 42.8337 40.4329 42.5732 41.2305C42.3291 42.0117 42.1501 42.7767 42.0361 43.5254C41.9385 44.2741 41.8896 44.9333 41.8896 45.5029C41.8896 46.1051 41.9466 46.6667 42.0605 47.1875C42.1908 47.6921 42.3861 48.1315 42.6465 48.5059C42.9069 48.8802 43.2243 49.1732 43.5986 49.3848C43.9893 49.5964 44.4368 49.7021 44.9414 49.7021C45.8691 49.7021 46.6911 49.4336 47.4072 48.8965C48.1396 48.3594 48.7744 47.6758 49.3115 46.8457C49.8649 45.9993 50.3206 45.0553 50.6787 44.0137C51.0531 42.9557 51.3542 41.9141 51.582 40.8887L52.876 35.0537ZM83.7207 35.6885H77.8857L75.8838 45.0391C75.8512 45.2507 75.8105 45.4785 75.7617 45.7227C75.7129 45.9668 75.6641 46.2109 75.6152 46.4551C75.5827 46.6992 75.5501 46.9352 75.5176 47.1631C75.485 47.3747 75.4688 47.5537 75.4688 47.7002C75.4688 48.3512 75.6315 48.8314 75.957 49.1406C76.2826 49.4499 76.8197 49.6045 77.5684 49.6045C77.7637 49.6045 78.0078 49.5801 78.3008 49.5312C78.61 49.4824 78.9193 49.4173 79.2285 49.3359C79.554 49.2546 79.8633 49.1732 80.1562 49.0918C80.4492 48.9941 80.6852 48.9128 80.8643 48.8477L79.668 54.5605C79.375 54.6745 79.0169 54.7884 78.5938 54.9023C78.1706 55.0163 77.7067 55.1221 77.2021 55.2197C76.6976 55.3174 76.1686 55.3988 75.6152 55.4639C75.0781 55.529 74.5492 55.5615 74.0283 55.5615C72.7913 55.5615 71.7578 55.3988 70.9277 55.0732C70.0977 54.764 69.4303 54.3327 68.9258 53.7793C68.4375 53.2096 68.0876 52.5505 67.876 51.8018C67.6807 51.0531 67.583 50.2393 67.583 49.3604C67.583 49.0999 67.5993 48.7988 67.6318 48.457C67.6644 48.1152 67.7051 47.7653 67.7539 47.4072C67.819 47.0492 67.8841 46.6911 67.9492 46.333C68.0306 45.9587 68.1038 45.6169 68.1689 45.3076L70.1709 35.6885H66.3135L67.6807 30H71.3672L72.6367 24.1406L80.7666 22.1387L79.1309 30H85.0635L83.7207 35.6885ZM111.514 46.748C111.4 47.2526 111.286 47.863 111.172 48.5791C111.074 49.2952 110.977 50.0439 110.879 50.8252C110.798 51.5902 110.724 52.347 110.659 53.0957C110.61 53.8281 110.586 54.4629 110.586 55H102.773C102.773 54.7559 102.782 54.4466 102.798 54.0723C102.83 53.6816 102.863 53.291 102.896 52.9004C102.928 52.4935 102.961 52.1029 102.993 51.7285C103.042 51.3379 103.083 51.0124 103.115 50.752H103.018C102.546 51.3867 102.057 51.9971 101.553 52.583C101.048 53.1689 100.487 53.6898 99.8682 54.1455C99.2497 54.585 98.5579 54.9349 97.793 55.1953C97.0443 55.472 96.1735 55.6104 95.1807 55.6104C93.96 55.6104 92.8695 55.3906 91.9092 54.9512C90.9652 54.5117 90.1676 53.877 89.5166 53.0469C88.8656 52.2168 88.3691 51.2077 88.0273 50.0195C87.6855 48.8151 87.5146 47.4561 87.5146 45.9424C87.5146 45.1774 87.596 44.2415 87.7588 43.1348C87.9378 42.0117 88.2471 40.8398 88.6865 39.6191C89.1423 38.3822 89.7689 37.1615 90.5664 35.957C91.3639 34.7363 92.3812 33.6377 93.6182 32.6611C94.8714 31.6846 96.377 30.8952 98.1348 30.293C99.9089 29.6908 101.992 29.3896 104.385 29.3896C105.312 29.3896 106.24 29.4303 107.168 29.5117C108.112 29.5768 109.032 29.6745 109.927 29.8047C110.838 29.9186 111.717 30.057 112.563 30.2197C113.41 30.3825 114.199 30.5452 114.932 30.708L111.514 46.748ZM106.265 35.0537C105.89 34.9723 105.475 34.9154 105.02 34.8828C104.564 34.834 104.132 34.8096 103.726 34.8096C102.603 34.8096 101.618 34.9967 100.771 35.3711C99.9251 35.7454 99.1846 36.2337 98.5498 36.8359C97.9313 37.4382 97.4105 38.1217 96.9873 38.8867C96.5641 39.6517 96.2223 40.4329 95.9619 41.2305C95.7178 42.0117 95.5387 42.7767 95.4248 43.5254C95.3271 44.2741 95.2783 44.9333 95.2783 45.5029C95.2783 46.1051 95.3353 46.6667 95.4492 47.1875C95.5794 47.6921 95.7747 48.1315 96.0352 48.5059C96.2956 48.8802 96.613 49.1732 96.9873 49.3848C97.3779 49.5964 97.8255 49.7021 98.3301 49.7021C99.2578 49.7021 100.08 49.4336 100.796 48.8965C101.528 48.3594 102.163 47.6758 102.7 46.8457C103.254 45.9993 103.709 45.0553 104.067 44.0137C104.442 42.9557 104.743 41.9141 104.971 40.8887L106.265 35.0537ZM154.38 36.25C154.038 36.071 153.639 35.8919 153.184 35.7129C152.728 35.5339 152.24 35.3711 151.719 35.2246C151.214 35.0781 150.693 34.9561 150.156 34.8584C149.619 34.7607 149.098 34.7119 148.594 34.7119C147.406 34.7119 146.551 34.9398 146.03 35.3955C145.526 35.8512 145.273 36.4046 145.273 37.0557C145.273 37.723 145.526 38.2682 146.03 38.6914C146.535 39.1146 147.202 39.5378 148.032 39.9609C149.009 40.4329 149.863 40.9049 150.596 41.377C151.328 41.849 151.938 42.3698 152.427 42.9395C152.915 43.5091 153.281 44.152 153.525 44.8682C153.77 45.568 153.892 46.3818 153.892 47.3096C153.892 48.3024 153.688 49.2952 153.281 50.2881C152.874 51.2809 152.215 52.1761 151.304 52.9736C150.392 53.7549 149.188 54.3896 147.69 54.8779C146.209 55.3662 144.386 55.6104 142.222 55.6104C141.603 55.6104 140.944 55.5778 140.244 55.5127C139.544 55.4476 138.853 55.3581 138.169 55.2441C137.485 55.1302 136.826 54.9919 136.191 54.8291C135.573 54.6663 135.02 54.4873 134.531 54.292L135.679 48.4082C136.102 48.6361 136.59 48.8639 137.144 49.0918C137.697 49.3197 138.283 49.5312 138.901 49.7266C139.536 49.9056 140.187 50.0602 140.854 50.1904C141.522 50.3044 142.181 50.3613 142.832 50.3613C144.053 50.3613 144.956 50.1497 145.542 49.7266C146.144 49.3034 146.445 48.7256 146.445 47.9932C146.445 47.3747 146.217 46.8376 145.762 46.3818C145.306 45.9098 144.517 45.4134 143.394 44.8926C142.466 44.4531 141.644 43.9974 140.928 43.5254C140.228 43.0534 139.634 42.5326 139.146 41.9629C138.657 41.3932 138.291 40.7585 138.047 40.0586C137.803 39.3587 137.681 38.5693 137.681 37.6904C137.681 36.7627 137.86 35.8105 138.218 34.834C138.592 33.8411 139.202 32.946 140.049 32.1484C140.895 31.3346 142.01 30.6755 143.394 30.1709C144.793 29.6501 146.51 29.3896 148.545 29.3896C149.163 29.3896 149.798 29.4222 150.449 29.4873C151.1 29.5361 151.735 29.6094 152.354 29.707C152.972 29.8047 153.558 29.9186 154.111 30.0488C154.665 30.179 155.153 30.3092 155.576 30.4395L154.38 36.25ZM184.565 36.4453C184.565 37.7311 184.289 38.9111 183.735 39.9854C183.198 41.0596 182.287 41.9873 181.001 42.7686C179.731 43.5498 178.039 44.1683 175.923 44.624C173.807 45.0635 171.17 45.3076 168.013 45.3564C167.98 45.4541 167.964 45.5436 167.964 45.625C167.964 45.6901 167.964 45.7633 167.964 45.8447C167.964 46.3493 168.045 46.8538 168.208 47.3584C168.371 47.863 168.647 48.3187 169.038 48.7256C169.445 49.1325 169.974 49.4661 170.625 49.7266C171.276 49.9707 172.09 50.0928 173.066 50.0928C173.652 50.0928 174.287 50.0439 174.971 49.9463C175.671 49.8324 176.379 49.6777 177.095 49.4824C177.811 49.2708 178.519 49.0267 179.219 48.75C179.935 48.457 180.594 48.1396 181.196 47.7979L180 53.5596C179.495 53.82 178.918 54.0723 178.267 54.3164C177.616 54.5605 176.908 54.7803 176.143 54.9756C175.394 55.1709 174.588 55.3255 173.726 55.4395C172.879 55.5534 172.008 55.6104 171.113 55.6104C169.225 55.6104 167.606 55.3337 166.255 54.7803C164.904 54.2269 163.789 53.4863 162.91 52.5586C162.048 51.6146 161.413 50.516 161.006 49.2627C160.599 48.0094 160.396 46.6748 160.396 45.2588C160.396 43.1266 160.745 41.1003 161.445 39.1797C162.161 37.2591 163.171 35.5745 164.473 34.126C165.791 32.6774 167.37 31.5299 169.209 30.6836C171.064 29.821 173.132 29.3896 175.41 29.3896C177.054 29.3896 178.454 29.585 179.609 29.9756C180.765 30.3662 181.709 30.8952 182.441 31.5625C183.174 32.2135 183.711 32.9622 184.053 33.8086C184.395 34.6549 184.565 35.5339 184.565 36.4453ZM177.217 36.543C177.217 35.9408 176.989 35.4443 176.533 35.0537C176.094 34.6468 175.467 34.4434 174.653 34.4434C173.937 34.4434 173.245 34.598 172.578 34.9072C171.927 35.2165 171.325 35.6478 170.771 36.2012C170.234 36.7383 169.771 37.3893 169.38 38.1543C168.989 38.903 168.696 39.7168 168.501 40.5957C171.431 40.6283 173.612 40.2946 175.044 39.5947C176.493 38.8949 177.217 37.8776 177.217 36.543ZM209.429 36.8604C208.875 36.4372 208.159 36.071 207.28 35.7617C206.401 35.4525 205.449 35.2979 204.424 35.2979C203.236 35.2979 202.161 35.5745 201.201 36.1279C200.241 36.6813 199.427 37.3975 198.76 38.2764C198.092 39.1553 197.58 40.14 197.222 41.2305C196.864 42.321 196.685 43.3952 196.685 44.4531C196.685 46.1296 197.075 47.4235 197.856 48.335C198.638 49.2464 199.81 49.7021 201.372 49.7021C201.86 49.7021 202.365 49.6533 202.886 49.5557C203.423 49.458 203.952 49.3278 204.473 49.165C204.993 48.986 205.49 48.7907 205.962 48.5791C206.45 48.3675 206.89 48.1396 207.28 47.8955L206.084 53.8037C204.977 54.3734 203.797 54.8128 202.544 55.1221C201.291 55.4476 200.037 55.6104 198.784 55.6104C197.157 55.6104 195.724 55.3581 194.487 54.8535C193.267 54.349 192.241 53.641 191.411 52.7295C190.581 51.818 189.954 50.7357 189.531 49.4824C189.124 48.2129 188.921 46.8213 188.921 45.3076C188.921 43.9079 189.076 42.5488 189.385 41.2305C189.71 39.8958 190.174 38.6426 190.776 37.4707C191.379 36.2988 192.119 35.2165 192.998 34.2236C193.893 33.2308 194.91 32.3763 196.05 31.6602C197.205 30.944 198.475 30.3906 199.858 30C201.258 29.5931 202.764 29.3896 204.375 29.3896C205.124 29.3896 205.832 29.4385 206.499 29.5361C207.166 29.6175 207.777 29.7314 208.33 29.8779C208.883 30.0081 209.372 30.1628 209.795 30.3418C210.218 30.5046 210.56 30.6592 210.82 30.8057L209.429 36.8604ZM238.687 46.6992C238.54 47.4316 238.402 48.1966 238.271 48.9941C238.141 49.7754 238.027 50.5322 237.93 51.2646C237.832 51.9971 237.751 52.6888 237.686 53.3398C237.62 53.9746 237.572 54.528 237.539 55H229.727C229.775 54.528 229.824 54.0479 229.873 53.5596C229.938 53.0713 230.003 52.6156 230.068 52.1924C230.133 51.7529 230.19 51.3623 230.239 51.0205C230.288 50.6787 230.321 50.4346 230.337 50.2881H230.239C229.604 51.0856 228.921 51.8099 228.188 52.4609C227.472 53.112 226.715 53.6735 225.918 54.1455C225.137 54.6012 224.323 54.9593 223.477 55.2197C222.646 55.4801 221.8 55.6104 220.938 55.6104C218.87 55.6104 217.3 55.0407 216.226 53.9014C215.168 52.7458 214.639 51.1263 214.639 49.043C214.639 48.7988 214.663 48.4733 214.712 48.0664C214.761 47.6595 214.818 47.2363 214.883 46.7969C214.964 46.3574 215.037 45.9342 215.103 45.5273C215.184 45.1042 215.257 44.7461 215.322 44.4531L218.374 30H226.138L223.135 44.1113C223.07 44.3717 223.005 44.6484 222.939 44.9414C222.891 45.2344 222.842 45.5192 222.793 45.7959C222.76 46.0726 222.728 46.3249 222.695 46.5527C222.679 46.7806 222.671 46.9596 222.671 47.0898C222.671 47.806 222.866 48.3838 223.257 48.8232C223.647 49.2464 224.217 49.458 224.966 49.458C225.78 49.458 226.569 49.2301 227.334 48.7744C228.099 48.3187 228.791 47.7246 229.409 46.9922C230.028 46.2598 230.557 45.4378 230.996 44.5264C231.452 43.6149 231.777 42.7035 231.973 41.792L234.487 30H242.275L238.687 46.6992ZM265.747 37.1045H265.698C265.356 36.9255 264.917 36.7627 264.38 36.6162C263.859 36.4697 263.371 36.3965 262.915 36.3965C261.955 36.3965 261.092 36.6162 260.327 37.0557C259.562 37.4788 258.887 38.0566 258.301 38.7891C257.715 39.5215 257.218 40.3841 256.812 41.377C256.421 42.3535 256.104 43.3952 255.859 44.502L253.662 55H245.85L249.268 39.0576C249.43 38.2926 249.585 37.5033 249.731 36.6895C249.894 35.8757 250.041 35.0781 250.171 34.2969C250.317 33.4993 250.439 32.7344 250.537 32.002C250.651 31.2695 250.741 30.6022 250.806 30H258.447C258.398 30.472 258.341 30.9603 258.276 31.4648C258.228 31.9694 258.171 32.4577 258.105 32.9297C258.057 33.3854 258 33.8005 257.935 34.1748C257.886 34.5492 257.845 34.8421 257.812 35.0537H257.91C258.919 33.182 259.977 31.7741 261.084 30.8301C262.207 29.8698 263.501 29.3896 264.966 29.3896C265.389 29.3896 265.804 29.4303 266.211 29.5117C266.618 29.5931 266.984 29.6582 267.31 29.707L265.747 37.1045ZM283.579 21.9434C283.579 22.5781 283.457 23.1478 283.213 23.6523C282.969 24.1569 282.635 24.5964 282.212 24.9707C281.805 25.3288 281.317 25.6055 280.747 25.8008C280.194 25.9961 279.591 26.0938 278.94 26.0938C278.322 26.0938 277.744 26.0042 277.207 25.8252C276.686 25.6299 276.23 25.3695 275.84 25.0439C275.465 24.7021 275.164 24.3034 274.937 23.8477C274.725 23.3919 274.619 22.8955 274.619 22.3584C274.619 21.7236 274.733 21.154 274.961 20.6494C275.205 20.1449 275.531 19.7135 275.938 19.3555C276.361 18.9811 276.857 18.6963 277.427 18.501C277.996 18.3057 278.615 18.208 279.282 18.208C279.901 18.208 280.47 18.3057 280.991 18.501C281.512 18.68 281.96 18.9404 282.334 19.2822C282.725 19.6077 283.026 19.9984 283.237 20.4541C283.465 20.9098 283.579 21.4062 283.579 21.9434ZM281.04 54.7803C280.747 54.8617 280.405 54.943 280.015 55.0244C279.64 55.1058 279.233 55.179 278.794 55.2441C278.371 55.3255 277.923 55.3825 277.451 55.415C276.995 55.4639 276.54 55.4883 276.084 55.4883C274.993 55.4883 274.058 55.3418 273.276 55.0488C272.511 54.7721 271.877 54.3815 271.372 53.877C270.868 53.3561 270.493 52.7458 270.249 52.0459C270.021 51.3298 269.907 50.5485 269.907 49.7021C269.907 49.3441 269.924 48.9453 269.956 48.5059C270.005 48.0664 270.062 47.6107 270.127 47.1387C270.192 46.6504 270.265 46.1621 270.347 45.6738C270.444 45.1693 270.542 44.6891 270.64 44.2334C270.705 43.9567 270.811 43.4521 270.957 42.7197C271.12 41.971 271.299 41.1165 271.494 40.1562C271.706 39.196 271.925 38.1868 272.153 37.1289C272.381 36.0547 272.593 35.0374 272.788 34.0771C273 33.1169 273.179 32.2705 273.325 31.5381C273.488 30.7894 273.602 30.2767 273.667 30H281.479L278.501 44.0625C278.371 44.6322 278.232 45.2751 278.086 45.9912C277.939 46.6911 277.866 47.3014 277.866 47.8223C277.866 48.4408 278.062 48.8721 278.452 49.1162C278.843 49.3604 279.29 49.4824 279.795 49.4824C280.218 49.4824 280.641 49.4417 281.064 49.3604C281.504 49.2627 281.903 49.1406 282.261 48.9941C282.049 49.9707 281.846 50.9391 281.65 51.8994C281.455 52.8434 281.252 53.8037 281.04 54.7803ZM305.293 35.6885H299.458L297.456 45.0391C297.424 45.2507 297.383 45.4785 297.334 45.7227C297.285 45.9668 297.236 46.2109 297.188 46.4551C297.155 46.6992 297.122 46.9352 297.09 47.1631C297.057 47.3747 297.041 47.5537 297.041 47.7002C297.041 48.3512 297.204 48.8314 297.529 49.1406C297.855 49.4499 298.392 49.6045 299.141 49.6045C299.336 49.6045 299.58 49.5801 299.873 49.5312C300.182 49.4824 300.492 49.4173 300.801 49.3359C301.126 49.2546 301.436 49.1732 301.729 49.0918C302.021 48.9941 302.257 48.9128 302.437 48.8477L301.24 54.5605C300.947 54.6745 300.589 54.7884 300.166 54.9023C299.743 55.0163 299.279 55.1221 298.774 55.2197C298.27 55.3174 297.741 55.3988 297.188 55.4639C296.65 55.529 296.121 55.5615 295.601 55.5615C294.364 55.5615 293.33 55.3988 292.5 55.0732C291.67 54.764 291.003 54.3327 290.498 53.7793C290.01 53.2096 289.66 52.5505 289.448 51.8018C289.253 51.0531 289.155 50.2393 289.155 49.3604C289.155 49.0999 289.172 48.7988 289.204 48.457C289.237 48.1152 289.277 47.7653 289.326 47.4072C289.391 47.0492 289.456 46.6911 289.521 46.333C289.603 45.9587 289.676 45.6169 289.741 45.3076L291.743 35.6885H287.886L289.253 30H292.939L294.209 24.1406L302.339 22.1387L300.703 30H306.636L305.293 35.6885ZM321.05 57.1973C320.22 58.6458 319.357 59.9561 318.462 61.1279C317.583 62.3161 316.623 63.3252 315.581 64.1553C314.539 64.9854 313.384 65.6201 312.114 66.0596C310.861 66.5153 309.437 66.7432 307.842 66.7432C307.288 66.7432 306.629 66.6862 305.864 66.5723C305.083 66.4746 304.359 66.3037 303.691 66.0596L305.01 60.1025C305.352 60.3467 305.775 60.5339 306.279 60.6641C306.784 60.7943 307.288 60.8594 307.793 60.8594C308.753 60.8594 309.648 60.6315 310.479 60.1758C311.309 59.7363 312.033 59.012 312.651 58.0029L314.653 54.8535L309.795 30H317.9L319.658 45.21C319.707 45.7633 319.74 46.3574 319.756 46.9922C319.772 47.627 319.756 48.1478 319.707 48.5547H319.805C319.951 48.1478 320.138 47.6432 320.366 47.041C320.594 46.4388 320.871 45.8285 321.196 45.21L328.838 30H336.943L321.05 57.1973Z" fill="black"/>
<path d="M343.381 114.25C343.039 114.071 342.64 113.892 342.185 113.713C341.729 113.534 341.241 113.371 340.72 113.225C340.215 113.078 339.694 112.956 339.157 112.858C338.62 112.761 338.099 112.712 337.595 112.712C336.407 112.712 335.552 112.94 335.031 113.396C334.527 113.851 334.274 114.405 334.274 115.056C334.274 115.723 334.527 116.268 335.031 116.691C335.536 117.115 336.203 117.538 337.033 117.961C338.01 118.433 338.864 118.905 339.597 119.377C340.329 119.849 340.939 120.37 341.428 120.939C341.916 121.509 342.282 122.152 342.526 122.868C342.771 123.568 342.893 124.382 342.893 125.31C342.893 126.302 342.689 127.295 342.282 128.288C341.875 129.281 341.216 130.176 340.305 130.974C339.393 131.755 338.189 132.39 336.691 132.878C335.21 133.366 333.387 133.61 331.223 133.61C330.604 133.61 329.945 133.578 329.245 133.513C328.545 133.448 327.854 133.358 327.17 133.244C326.486 133.13 325.827 132.992 325.192 132.829C324.574 132.666 324.021 132.487 323.532 132.292L324.68 126.408C325.103 126.636 325.591 126.864 326.145 127.092C326.698 127.32 327.284 127.531 327.902 127.727C328.537 127.906 329.188 128.06 329.855 128.19C330.523 128.304 331.182 128.361 331.833 128.361C333.054 128.361 333.957 128.15 334.543 127.727C335.145 127.303 335.446 126.726 335.446 125.993C335.446 125.375 335.218 124.838 334.763 124.382C334.307 123.91 333.518 123.413 332.395 122.893C331.467 122.453 330.645 121.997 329.929 121.525C329.229 121.053 328.635 120.533 328.146 119.963C327.658 119.393 327.292 118.758 327.048 118.059C326.804 117.359 326.682 116.569 326.682 115.69C326.682 114.763 326.861 113.811 327.219 112.834C327.593 111.841 328.203 110.946 329.05 110.148C329.896 109.335 331.011 108.675 332.395 108.171C333.794 107.65 335.511 107.39 337.546 107.39C338.164 107.39 338.799 107.422 339.45 107.487C340.101 107.536 340.736 107.609 341.354 107.707C341.973 107.805 342.559 107.919 343.112 108.049C343.666 108.179 344.154 108.309 344.577 108.439L343.381 114.25ZM373.566 114.445C373.566 115.731 373.29 116.911 372.736 117.985C372.199 119.06 371.288 119.987 370.002 120.769C368.732 121.55 367.04 122.168 364.924 122.624C362.808 123.063 360.171 123.308 357.014 123.356C356.981 123.454 356.965 123.544 356.965 123.625C356.965 123.69 356.965 123.763 356.965 123.845C356.965 124.349 357.046 124.854 357.209 125.358C357.372 125.863 357.648 126.319 358.039 126.726C358.446 127.132 358.975 127.466 359.626 127.727C360.277 127.971 361.091 128.093 362.067 128.093C362.653 128.093 363.288 128.044 363.972 127.946C364.672 127.832 365.38 127.678 366.096 127.482C366.812 127.271 367.52 127.027 368.22 126.75C368.936 126.457 369.595 126.14 370.197 125.798L369.001 131.56C368.496 131.82 367.919 132.072 367.268 132.316C366.617 132.561 365.909 132.78 365.144 132.976C364.395 133.171 363.589 133.326 362.727 133.439C361.88 133.553 361.009 133.61 360.114 133.61C358.226 133.61 356.607 133.334 355.256 132.78C353.905 132.227 352.79 131.486 351.911 130.559C351.049 129.615 350.414 128.516 350.007 127.263C349.6 126.009 349.396 124.675 349.396 123.259C349.396 121.127 349.746 119.1 350.446 117.18C351.162 115.259 352.172 113.575 353.474 112.126C354.792 110.677 356.371 109.53 358.21 108.684C360.065 107.821 362.132 107.39 364.411 107.39C366.055 107.39 367.455 107.585 368.61 107.976C369.766 108.366 370.71 108.895 371.442 109.562C372.175 110.214 372.712 110.962 373.054 111.809C373.396 112.655 373.566 113.534 373.566 114.445ZM366.218 114.543C366.218 113.941 365.99 113.444 365.534 113.054C365.095 112.647 364.468 112.443 363.654 112.443C362.938 112.443 362.246 112.598 361.579 112.907C360.928 113.216 360.326 113.648 359.772 114.201C359.235 114.738 358.771 115.389 358.381 116.154C357.99 116.903 357.697 117.717 357.502 118.596C360.432 118.628 362.613 118.295 364.045 117.595C365.493 116.895 366.218 115.878 366.218 114.543ZM389.494 132.78C389.201 132.862 388.859 132.943 388.469 133.024C388.094 133.106 387.688 133.179 387.248 133.244C386.825 133.326 386.377 133.382 385.905 133.415C385.45 133.464 384.994 133.488 384.538 133.488C383.448 133.488 382.512 133.342 381.73 133.049C380.965 132.772 380.331 132.382 379.826 131.877C379.322 131.356 378.947 130.746 378.703 130.046C378.475 129.33 378.361 128.549 378.361 127.702C378.361 127.344 378.378 126.945 378.41 126.506C378.459 126.066 378.516 125.611 378.581 125.139C378.646 124.65 378.719 124.162 378.801 123.674C378.898 123.169 378.996 122.689 379.094 122.233C379.143 122.022 379.248 121.509 379.411 120.695C379.59 119.865 379.81 118.848 380.07 117.644C380.331 116.439 380.616 115.104 380.925 113.64C381.234 112.159 381.551 110.653 381.877 109.123C382.219 107.577 382.544 106.071 382.854 104.606C383.163 103.125 383.448 101.783 383.708 100.578C383.968 99.3737 384.18 98.3646 384.343 97.5508C384.522 96.7207 384.636 96.1999 384.685 95.9883H392.497L386.955 122.062C386.825 122.632 386.687 123.275 386.54 123.991C386.394 124.691 386.32 125.301 386.32 125.822C386.32 126.441 386.516 126.872 386.906 127.116C387.297 127.36 387.744 127.482 388.249 127.482C388.672 127.482 389.095 127.442 389.519 127.36C389.958 127.263 390.357 127.141 390.715 126.994C390.503 127.971 390.3 128.939 390.104 129.899C389.909 130.843 389.706 131.804 389.494 132.78ZM417.751 101.994C417.295 101.815 416.791 101.66 416.237 101.53C415.7 101.384 415.171 101.311 414.65 101.311C413.495 101.311 412.608 101.628 411.989 102.263C411.371 102.897 410.907 103.89 410.598 105.241L410.012 108H415.7L414.504 113.688H408.693L402.761 141.301H395.046L400.954 113.688H396.706L397.951 108H402.15L402.956 104.411C403.64 101.368 404.909 99.1051 406.765 97.624C408.636 96.1429 411.167 95.4023 414.357 95.4023C415.188 95.4023 416.018 95.4674 416.848 95.5977C417.694 95.7279 418.394 95.8825 418.947 96.0615L417.751 101.994ZM432.312 122.355H418.957L420.104 116.96H433.459L432.312 122.355ZM463.156 129.997C462.701 132.178 462.09 134.172 461.325 135.979C460.56 137.785 459.527 139.331 458.225 140.617C456.923 141.919 455.287 142.928 453.317 143.645C451.348 144.377 448.931 144.743 446.066 144.743C444.488 144.743 443.031 144.572 441.696 144.23C440.362 143.905 439.117 143.465 437.961 142.912L439.328 136.711C440.354 137.395 441.477 137.956 442.697 138.396C443.918 138.835 445.204 139.055 446.555 139.055C447.824 139.055 448.931 138.884 449.875 138.542C450.835 138.2 451.657 137.696 452.341 137.028C453.041 136.361 453.618 135.531 454.074 134.538C454.53 133.562 454.896 132.43 455.173 131.145L455.612 128.947H455.515C455.091 129.582 454.628 130.184 454.123 130.754C453.618 131.307 453.057 131.796 452.438 132.219C451.836 132.642 451.161 132.976 450.412 133.22C449.68 133.48 448.85 133.61 447.922 133.61C446.652 133.61 445.537 133.382 444.577 132.927C443.633 132.455 442.836 131.804 442.185 130.974C441.55 130.144 441.07 129.151 440.744 127.995C440.419 126.84 440.256 125.562 440.256 124.162C440.256 122.762 440.402 121.379 440.695 120.012C441.005 118.628 441.46 117.318 442.062 116.081C442.665 114.828 443.422 113.672 444.333 112.614C445.244 111.556 446.302 110.645 447.507 109.88C448.728 109.099 450.095 108.488 451.608 108.049C453.122 107.609 454.79 107.39 456.613 107.39C457.622 107.39 458.623 107.43 459.616 107.512C460.625 107.577 461.602 107.674 462.546 107.805C463.506 107.919 464.418 108.057 465.28 108.22C466.143 108.366 466.94 108.513 467.673 108.659L463.156 129.997ZM459.006 113.054C458.632 112.972 458.192 112.915 457.688 112.883C457.199 112.834 456.678 112.81 456.125 112.81C455.002 112.81 453.944 113.086 452.951 113.64C451.975 114.193 451.12 114.95 450.388 115.91C449.655 116.87 449.077 118.002 448.654 119.304C448.231 120.606 448.02 122.006 448.02 123.503C448.02 124.105 448.076 124.667 448.19 125.188C448.321 125.692 448.516 126.132 448.776 126.506C449.037 126.88 449.354 127.173 449.729 127.385C450.119 127.596 450.567 127.702 451.071 127.702C451.722 127.702 452.316 127.572 452.854 127.312C453.407 127.051 453.903 126.701 454.343 126.262C454.799 125.806 455.197 125.285 455.539 124.699C455.897 124.113 456.215 123.495 456.491 122.844C456.768 122.193 457.004 121.534 457.199 120.866C457.411 120.199 457.582 119.564 457.712 118.962L459.006 113.054ZM498.151 117.912C498.151 119.068 498.037 120.256 497.81 121.477C497.582 122.697 497.224 123.894 496.735 125.065C496.247 126.221 495.612 127.32 494.831 128.361C494.066 129.403 493.13 130.314 492.023 131.096C490.933 131.861 489.663 132.471 488.215 132.927C486.783 133.382 485.147 133.61 483.308 133.61C481.452 133.61 479.833 133.342 478.449 132.805C477.082 132.268 475.951 131.527 475.056 130.583C474.16 129.639 473.493 128.524 473.054 127.238C472.614 125.936 472.395 124.536 472.395 123.039C472.395 121.835 472.517 120.614 472.761 119.377C473.005 118.124 473.379 116.919 473.884 115.764C474.405 114.608 475.064 113.526 475.861 112.517C476.659 111.491 477.611 110.604 478.718 109.855C479.825 109.09 481.086 108.488 482.502 108.049C483.934 107.609 485.537 107.39 487.312 107.39C489.053 107.39 490.591 107.642 491.926 108.146C493.277 108.635 494.408 109.343 495.319 110.271C496.247 111.182 496.947 112.289 497.419 113.591C497.907 114.877 498.151 116.317 498.151 117.912ZM490.363 118.01C490.363 117.326 490.282 116.7 490.119 116.13C489.956 115.544 489.712 115.048 489.387 114.641C489.077 114.217 488.695 113.892 488.239 113.664C487.784 113.42 487.255 113.298 486.652 113.298C485.627 113.298 484.707 113.591 483.894 114.177C483.096 114.763 482.421 115.52 481.867 116.447C481.314 117.375 480.891 118.417 480.598 119.572C480.305 120.728 480.158 121.883 480.158 123.039C480.158 124.52 480.5 125.668 481.184 126.481C481.883 127.295 482.787 127.702 483.894 127.702C484.951 127.702 485.879 127.417 486.677 126.848C487.491 126.278 488.166 125.537 488.703 124.626C489.257 123.698 489.672 122.657 489.948 121.501C490.225 120.345 490.363 119.182 490.363 118.01ZM516.862 133H508.269L504.973 108H512.663L513.664 121.843C513.697 122.152 513.721 122.526 513.737 122.966C513.77 123.405 513.794 123.861 513.811 124.333C513.827 124.805 513.835 125.277 513.835 125.749C513.851 126.205 513.843 126.604 513.811 126.945H513.908C514.038 126.604 514.193 126.229 514.372 125.822C514.551 125.399 514.738 124.968 514.934 124.528C515.129 124.073 515.324 123.625 515.52 123.186C515.731 122.73 515.926 122.299 516.105 121.892L522.819 108H531.315L516.862 133ZM556.984 114.445C556.984 115.731 556.708 116.911 556.154 117.985C555.617 119.06 554.706 119.987 553.42 120.769C552.15 121.55 550.458 122.168 548.342 122.624C546.226 123.063 543.589 123.308 540.432 123.356C540.399 123.454 540.383 123.544 540.383 123.625C540.383 123.69 540.383 123.763 540.383 123.845C540.383 124.349 540.464 124.854 540.627 125.358C540.79 125.863 541.066 126.319 541.457 126.726C541.864 127.132 542.393 127.466 543.044 127.727C543.695 127.971 544.509 128.093 545.485 128.093C546.071 128.093 546.706 128.044 547.39 127.946C548.09 127.832 548.798 127.678 549.514 127.482C550.23 127.271 550.938 127.027 551.638 126.75C552.354 126.457 553.013 126.14 553.615 125.798L552.419 131.56C551.914 131.82 551.337 132.072 550.686 132.316C550.035 132.561 549.326 132.78 548.562 132.976C547.813 133.171 547.007 133.326 546.145 133.439C545.298 133.553 544.427 133.61 543.532 133.61C541.644 133.61 540.025 133.334 538.674 132.78C537.323 132.227 536.208 131.486 535.329 130.559C534.466 129.615 533.832 128.516 533.425 127.263C533.018 126.009 532.814 124.675 532.814 123.259C532.814 121.127 533.164 119.1 533.864 117.18C534.58 115.259 535.59 113.575 536.892 112.126C538.21 110.677 539.789 109.53 541.628 108.684C543.483 107.821 545.55 107.39 547.829 107.39C549.473 107.39 550.873 107.585 552.028 107.976C553.184 108.366 554.128 108.895 554.86 109.562C555.593 110.214 556.13 110.962 556.472 111.809C556.813 112.655 556.984 113.534 556.984 114.445ZM549.636 114.543C549.636 113.941 549.408 113.444 548.952 113.054C548.513 112.647 547.886 112.443 547.072 112.443C546.356 112.443 545.664 112.598 544.997 112.907C544.346 113.216 543.744 113.648 543.19 114.201C542.653 114.738 542.189 115.389 541.799 116.154C541.408 116.903 541.115 117.717 540.92 118.596C543.85 118.628 546.031 118.295 547.463 117.595C548.911 116.895 549.636 115.878 549.636 114.543ZM580.139 115.104H580.09C579.748 114.925 579.309 114.763 578.771 114.616C578.251 114.47 577.762 114.396 577.307 114.396C576.346 114.396 575.484 114.616 574.719 115.056C573.954 115.479 573.278 116.057 572.692 116.789C572.106 117.521 571.61 118.384 571.203 119.377C570.812 120.354 570.495 121.395 570.251 122.502L568.054 133H560.241L563.659 117.058C563.822 116.293 563.977 115.503 564.123 114.689C564.286 113.876 564.432 113.078 564.562 112.297C564.709 111.499 564.831 110.734 564.929 110.002C565.043 109.27 565.132 108.602 565.197 108H572.839C572.79 108.472 572.733 108.96 572.668 109.465C572.619 109.969 572.562 110.458 572.497 110.93C572.448 111.385 572.391 111.8 572.326 112.175C572.277 112.549 572.237 112.842 572.204 113.054H572.302C573.311 111.182 574.369 109.774 575.476 108.83C576.599 107.87 577.893 107.39 579.357 107.39C579.781 107.39 580.196 107.43 580.603 107.512C581.009 107.593 581.376 107.658 581.701 107.707L580.139 115.104ZM610.471 113.957C610.471 114.201 610.446 114.527 610.397 114.934C610.349 115.34 610.284 115.764 610.202 116.203C610.137 116.643 610.064 117.074 609.982 117.497C609.901 117.904 609.828 118.254 609.763 118.547L606.711 133H598.972L601.975 118.742C602.072 118.221 602.17 117.684 602.268 117.131C602.365 116.577 602.414 116.154 602.414 115.861C602.414 115.08 602.211 114.462 601.804 114.006C601.413 113.534 600.819 113.298 600.021 113.298C599.354 113.298 598.654 113.509 597.922 113.933C597.206 114.34 596.53 114.885 595.896 115.568C595.261 116.252 594.699 117.041 594.211 117.937C593.739 118.815 593.405 119.719 593.21 120.646L590.622 133H582.761L586.472 115.861C586.618 115.113 586.765 114.364 586.911 113.615C587.058 112.85 587.188 112.126 587.302 111.442C587.416 110.743 587.513 110.1 587.595 109.514C587.692 108.911 587.766 108.407 587.814 108H595.432C595.383 108.456 595.326 108.936 595.261 109.44C595.212 109.929 595.155 110.401 595.09 110.856C595.041 111.312 594.992 111.719 594.943 112.077C594.895 112.419 594.854 112.663 594.821 112.81H594.919C595.489 112.061 596.132 111.361 596.848 110.71C597.564 110.043 598.321 109.465 599.118 108.977C599.932 108.488 600.77 108.106 601.633 107.829C602.495 107.536 603.358 107.39 604.221 107.39C606.288 107.39 607.842 107.967 608.884 109.123C609.942 110.262 610.471 111.874 610.471 113.957ZM658.552 113.957C658.552 114.201 658.527 114.527 658.479 114.934C658.43 115.34 658.365 115.764 658.283 116.203C658.218 116.643 658.145 117.074 658.063 117.497C657.982 117.904 657.909 118.254 657.844 118.547L654.792 133H647.053L650.104 118.742C650.202 118.221 650.3 117.684 650.397 117.131C650.495 116.577 650.544 116.154 650.544 115.861C650.544 115.048 650.349 114.421 649.958 113.981C649.567 113.526 648.965 113.298 648.151 113.298C647.533 113.298 646.874 113.509 646.174 113.933C645.474 114.356 644.807 114.909 644.172 115.593C643.553 116.276 643 117.058 642.512 117.937C642.04 118.815 641.706 119.719 641.511 120.646L638.947 133H631.159L634.211 118.742C634.309 118.221 634.406 117.684 634.504 117.131C634.602 116.577 634.65 116.154 634.65 115.861C634.65 115.048 634.447 114.421 634.04 113.981C633.649 113.526 633.055 113.298 632.258 113.298C631.623 113.298 630.956 113.509 630.256 113.933C629.556 114.356 628.897 114.917 628.278 115.617C627.66 116.301 627.115 117.082 626.643 117.961C626.171 118.84 625.837 119.735 625.642 120.646L623.005 133H615.192L618.903 115.861C619.05 115.113 619.196 114.364 619.343 113.615C619.489 112.85 619.619 112.126 619.733 111.442C619.847 110.743 619.945 110.1 620.026 109.514C620.124 108.911 620.197 108.407 620.246 108H627.863C627.814 108.456 627.757 108.936 627.692 109.44C627.644 109.929 627.587 110.401 627.521 110.856C627.473 111.312 627.424 111.719 627.375 112.077C627.326 112.419 627.285 112.663 627.253 112.81H627.351C627.953 112.028 628.604 111.312 629.304 110.661C630.02 109.994 630.769 109.424 631.55 108.952C632.331 108.464 633.137 108.081 633.967 107.805C634.797 107.528 635.627 107.39 636.457 107.39C638.41 107.39 639.883 107.894 640.876 108.903C641.869 109.912 642.447 111.312 642.609 113.103C643.228 112.256 643.903 111.483 644.636 110.783C645.368 110.083 646.149 109.481 646.979 108.977C647.81 108.472 648.672 108.081 649.567 107.805C650.463 107.528 651.374 107.39 652.302 107.39C654.369 107.39 655.923 107.959 656.965 109.099C658.023 110.222 658.552 111.841 658.552 113.957ZM688.518 114.445C688.518 115.731 688.241 116.911 687.688 117.985C687.15 119.06 686.239 119.987 684.953 120.769C683.684 121.55 681.991 122.168 679.875 122.624C677.759 123.063 675.122 123.308 671.965 123.356C671.932 123.454 671.916 123.544 671.916 123.625C671.916 123.69 671.916 123.763 671.916 123.845C671.916 124.349 671.997 124.854 672.16 125.358C672.323 125.863 672.6 126.319 672.99 126.726C673.397 127.132 673.926 127.466 674.577 127.727C675.228 127.971 676.042 128.093 677.019 128.093C677.604 128.093 678.239 128.044 678.923 127.946C679.623 127.832 680.331 127.678 681.047 127.482C681.763 127.271 682.471 127.027 683.171 126.75C683.887 126.457 684.546 126.14 685.148 125.798L683.952 131.56C683.448 131.82 682.87 132.072 682.219 132.316C681.568 132.561 680.86 132.78 680.095 132.976C679.346 133.171 678.54 133.326 677.678 133.439C676.831 133.553 675.961 133.61 675.065 133.61C673.177 133.61 671.558 133.334 670.207 132.78C668.856 132.227 667.741 131.486 666.862 130.559C666 129.615 665.365 128.516 664.958 127.263C664.551 126.009 664.348 124.675 664.348 123.259C664.348 121.127 664.698 119.1 665.397 117.18C666.114 115.259 667.123 113.575 668.425 112.126C669.743 110.677 671.322 109.53 673.161 108.684C675.017 107.821 677.084 107.39 679.362 107.39C681.006 107.39 682.406 107.585 683.562 107.976C684.717 108.366 685.661 108.895 686.394 109.562C687.126 110.214 687.663 110.962 688.005 111.809C688.347 112.655 688.518 113.534 688.518 114.445ZM681.169 114.543C681.169 113.941 680.941 113.444 680.485 113.054C680.046 112.647 679.419 112.443 678.605 112.443C677.889 112.443 677.198 112.598 676.53 112.907C675.879 113.216 675.277 113.648 674.724 114.201C674.187 114.738 673.723 115.389 673.332 116.154C672.941 116.903 672.648 117.717 672.453 118.596C675.383 118.628 677.564 118.295 678.996 117.595C680.445 116.895 681.169 115.878 681.169 114.543ZM719.484 113.957C719.484 114.201 719.46 114.527 719.411 114.934C719.362 115.34 719.297 115.764 719.216 116.203C719.151 116.643 719.077 117.074 718.996 117.497C718.915 117.904 718.841 118.254 718.776 118.547L715.725 133H707.985L710.988 118.742C711.086 118.221 711.184 117.684 711.281 117.131C711.379 116.577 711.428 116.154 711.428 115.861C711.428 115.08 711.224 114.462 710.817 114.006C710.427 113.534 709.833 113.298 709.035 113.298C708.368 113.298 707.668 113.509 706.936 113.933C706.219 114.34 705.544 114.885 704.909 115.568C704.274 116.252 703.713 117.041 703.225 117.937C702.753 118.815 702.419 119.719 702.224 120.646L699.636 133H691.774L695.485 115.861C695.632 115.113 695.778 114.364 695.925 113.615C696.071 112.85 696.201 112.126 696.315 111.442C696.429 110.743 696.527 110.1 696.608 109.514C696.706 108.911 696.779 108.407 696.828 108H704.445C704.396 108.456 704.34 108.936 704.274 109.44C704.226 109.929 704.169 110.401 704.104 110.856C704.055 111.312 704.006 111.719 703.957 112.077C703.908 112.419 703.868 112.663 703.835 112.81H703.933C704.502 112.061 705.145 111.361 705.861 110.71C706.577 110.043 707.334 109.465 708.132 108.977C708.946 108.488 709.784 108.106 710.646 107.829C711.509 107.536 712.372 107.39 713.234 107.39C715.301 107.39 716.856 107.967 717.897 109.123C718.955 110.262 719.484 111.874 719.484 113.957ZM742.761 113.688H736.926L734.924 123.039C734.891 123.251 734.851 123.479 734.802 123.723C734.753 123.967 734.704 124.211 734.655 124.455C734.623 124.699 734.59 124.935 734.558 125.163C734.525 125.375 734.509 125.554 734.509 125.7C734.509 126.351 734.672 126.831 734.997 127.141C735.323 127.45 735.86 127.604 736.608 127.604C736.804 127.604 737.048 127.58 737.341 127.531C737.65 127.482 737.959 127.417 738.269 127.336C738.594 127.255 738.903 127.173 739.196 127.092C739.489 126.994 739.725 126.913 739.904 126.848L738.708 132.561C738.415 132.674 738.057 132.788 737.634 132.902C737.211 133.016 736.747 133.122 736.242 133.22C735.738 133.317 735.209 133.399 734.655 133.464C734.118 133.529 733.589 133.562 733.068 133.562C731.831 133.562 730.798 133.399 729.968 133.073C729.138 132.764 728.47 132.333 727.966 131.779C727.478 131.21 727.128 130.55 726.916 129.802C726.721 129.053 726.623 128.239 726.623 127.36C726.623 127.1 726.639 126.799 726.672 126.457C726.704 126.115 726.745 125.765 726.794 125.407C726.859 125.049 726.924 124.691 726.989 124.333C727.071 123.959 727.144 123.617 727.209 123.308L729.211 113.688H725.354L726.721 108H730.407L731.677 102.141L739.807 100.139L738.171 108H744.104L742.761 113.688Z" fill="black"/>
<path d="M375 2.5L287 149" stroke="black" stroke-width="8" stroke-linejoin="round"/>
</svg>
