<svg width="124" height="124" viewBox="0 0 124 124" fill="none" xmlns="http://www.w3.org/2000/svg">
<path fill-rule="evenodd" clip-rule="evenodd" d="M57.3558 64.2108C60.435 64.4465 62.0905 68.1611 59.9522 70.5124C59.6279 70.8707 59.232 71.1667 58.7964 71.376C58.2797 71.6249 57.731 71.7343 57.1616 71.7494H7.54235V78.3206H48.6934C50.7751 78.3206 52.4646 80.0101 52.4646 82.0918C52.4646 84.1716 50.7751 85.863 48.6934 85.863H5.66053C2.60588 85.863 0 83.3344 0 80.0704V69.9977C0 66.7337 2.60588 64.207 5.66053 64.207H57.1616L57.3558 64.2108V64.2108Z" fill="white"/>
<path fill-rule="evenodd" clip-rule="evenodd" d="M64.7513 7.52793C64.7513 5.58201 63.6935 4 62.3906 4H6.18497C4.88203 4 3.82422 5.58201 3.82422 7.52793V14.5857C3.82422 16.5335 4.88203 18.1136 6.18497 18.1136H62.3906C63.6935 18.1136 64.7513 16.5335 64.7513 14.5857V7.52793Z" stroke="white" stroke-width="7" stroke-miterlimit="5" stroke-linecap="round" stroke-linejoin="round"/>
<path fill-rule="evenodd" clip-rule="evenodd" d="M12.0908 29.6081V55.6594C12.0908 57.741 13.7822 59.4305 15.862 59.4305C17.9437 59.4305 19.6332 57.741 19.6332 55.6594V29.6081C19.6332 27.5264 17.9437 25.8369 15.862 25.8369C13.7822 25.8369 12.0908 27.5264 12.0908 29.6081V29.6081Z" fill="white"/>
<path fill-rule="evenodd" clip-rule="evenodd" d="M30.4727 29.6081V55.6594C30.4727 57.7411 32.1621 59.4305 34.2438 59.4305C36.3255 59.4305 38.015 57.7411 38.015 55.6594V29.6081C38.015 27.5264 36.3255 25.8369 34.2438 25.8369C32.1621 25.8369 30.4727 27.5264 30.4727 29.6081Z" fill="white"/>
<path fill-rule="evenodd" clip-rule="evenodd" d="M48.7324 29.6081V55.6594C48.7324 57.7411 50.4219 59.4305 52.5036 59.4305C54.5853 59.4305 56.2748 57.7411 56.2748 55.6594V29.6081C56.2748 27.5264 54.5853 25.8369 52.5036 25.8369C50.4219 25.8369 48.7324 27.5264 48.7324 29.6081Z" fill="white"/>
<path fill-rule="evenodd" clip-rule="evenodd" d="M108.747 75.6797C117.121 75.6797 123.736 82.0341 123.736 89.6425V120.229C123.736 122.31 122.048 124 119.965 124H64.3473C62.2657 124 60.5762 122.31 60.5762 120.229C60.5762 120.229 60.5762 101.72 60.5762 89.6425C60.5762 82.0341 67.1908 75.6797 75.5647 75.6797H108.747V75.6797ZM75.5647 83.222C72.6119 83.2861 69.5271 84.7701 68.4617 87.6928C68.2317 88.3263 68.1393 88.9731 68.1185 89.6425V116.457H116.193V89.6425C116.082 85.8223 112.696 83.4615 109.123 83.2296L75.5647 83.222V83.222Z" fill="white"/>
<path fill-rule="evenodd" clip-rule="evenodd" d="M107.291 70.0666C112.18 65.9164 115.259 59.8014 115.259 52.9945C115.259 40.5515 104.943 30.4014 92.1741 30.4014C79.4068 30.4014 69.0889 40.5515 69.0889 52.9945C69.0889 59.9749 72.3283 66.2275 77.4345 70.3777C79.0504 71.692 81.4263 71.4468 82.7405 69.8309C84.0529 68.2168 83.8078 65.8391 82.1918 64.5267C78.8015 61.77 76.6312 57.6293 76.6312 52.9945C76.6312 44.6602 83.623 37.9437 92.1741 37.9437C100.727 37.9437 107.717 44.6602 107.717 52.9945C107.717 57.5123 105.654 61.5626 102.409 64.3155C100.823 65.6619 100.627 68.0452 101.975 69.631C103.322 71.2187 105.703 71.4129 107.291 70.0666V70.0666Z" fill="white"/>
</svg>
