<svg width="105" height="120" viewBox="0 0 105 120" fill="none" xmlns="http://www.w3.org/2000/svg">
<path fill-rule="evenodd" clip-rule="evenodd" d="M89.5765 73.125C97.6998 73.125 104.117 79.2893 104.117 86.67V116.341C104.117 118.362 102.479 119.999 100.458 119.999H46.505C44.4856 119.999 42.8467 118.362 42.8467 116.341C42.8467 116.341 42.8467 98.3858 42.8467 86.67C42.8467 79.2893 49.2634 73.125 57.3868 73.125H89.5765ZM57.3868 80.4417C54.5223 80.5039 51.5298 81.9434 50.4963 84.7805C50.2731 85.3932 50.1835 86.0206 50.1634 86.67V112.683H96.7999V86.67C96.692 82.9641 93.4068 80.674 89.9405 80.4508L57.3868 80.4417V80.4417Z" fill="white"/>
<path fill-rule="evenodd" clip-rule="evenodd" d="M44.2422 43.9229C46.2616 43.9229 47.9005 45.5618 47.9005 47.5812C47.9005 49.6006 46.2616 51.2395 44.2422 51.2395C34.8731 51.2395 23.9091 51.2395 14.5401 51.2395C10.6421 51.2395 7.31668 53.9266 7.31668 57.4679V83.4969L35.7219 83.6286C37.7413 83.6378 39.3729 85.2859 39.3619 87.3034C39.3528 89.3228 37.7065 90.9545 35.6871 90.9453L3.64188 90.7972C1.62796 90.788 0 89.1527 0 87.1388C0 87.1388 0 69.1837 0 57.4679C0 50.0872 6.41856 43.9229 14.5401 43.9229H44.2422V43.9229Z" fill="white"/>
<path fill-rule="evenodd" clip-rule="evenodd" d="M46.6332 38.4784C51.3762 34.4524 54.3651 28.5204 54.3651 21.9171C54.3651 9.84825 44.3559 0 31.9706 0C19.5834 0 9.57422 9.84825 9.57422 21.9171C9.57422 28.6887 12.7167 34.7542 17.672 38.7821C19.2377 40.0552 21.5443 39.8174 22.8174 38.2498C24.0905 36.684 23.8527 34.3774 22.2869 33.1043C18.9981 30.4301 16.8909 26.4132 16.8909 21.9171C16.8909 13.8322 23.6735 7.31668 31.9706 7.31668C40.2659 7.31668 47.0484 13.8322 47.0484 21.9171C47.0484 26.2998 45.0473 30.2289 41.8993 32.8994C40.3592 34.2073 40.1707 36.5175 41.4768 38.0559C42.7828 39.596 45.093 39.7844 46.6332 38.4784V38.4784Z" fill="white"/>
<path fill-rule="evenodd" clip-rule="evenodd" d="M88.1635 67.8007C92.9065 63.7747 95.8936 57.8427 95.8936 51.2394C95.8936 39.1705 85.8862 29.3223 73.499 29.3223C61.1137 29.3223 51.1045 39.1705 51.1045 51.2394C51.1045 58.011 54.247 64.0765 59.2004 68.1043C60.768 69.3774 63.0727 69.1396 64.3477 67.572C65.6208 66.0063 65.383 63.6997 63.8154 62.4266C60.5265 59.7523 58.4212 55.7355 58.4212 51.2394C58.4212 43.1544 65.2037 36.6389 73.499 36.6389C81.7961 36.6389 88.5769 43.1544 88.5769 51.2394C88.5769 55.6221 86.5758 59.5511 83.4278 62.2217C81.8894 63.5296 81.6992 65.8398 83.007 67.3781C84.3131 68.9183 86.6233 69.1067 88.1635 67.8007V67.8007Z" fill="white"/>
</svg>
