<?xml version="1.0" encoding="UTF-8" standalone="no"?><!DOCTYPE svg PUBLIC "-//W3C//DTD SVG 1.1//EN" "http://www.w3.org/Graphics/SVG/1.1/DTD/svg11.dtd"><svg width="100%" height="100%" viewBox="0 0 1670 570" version="1.1" xmlns="http://www.w3.org/2000/svg" xmlns:xlink="http://www.w3.org/1999/xlink" xml:space="preserve" xmlns:serif="http://www.serif.com/" style="fill-rule:evenodd;clip-rule:evenodd;stroke-linecap:round;stroke-linejoin:round;stroke-miterlimit:2;"><g><g id="development"><text x="1171.88px" y="21.198px" style="font-family:'FSElliotPro-Bold', 'FS Elliot Pro';font-weight:700;font-size:30px;">De<tspan x="1209.92px 1225.67px 1242.2px 1251.05px " y="21.198px 21.198px 21.198px 21.198px ">velo</tspan>pmen<tspan x="1348.88px 1360.85px " y="21.198px 21.198px ">t </tspan>&amp; R<tspan x="1414.22px 1432.25px 1441.1px " y="21.198px 21.198px 21.198px ">oll</tspan> out</text><path d="M1016.83,172.586c-0,-18.823 6.057,-34.549 18.17,-47.177c16.717,-16.917 37.068,-25.375 61.053,-25.375l180.826,-0c13.325,-0 24.53,-3.931 33.615,-11.794c9.085,-7.863 14.112,-17.87 15.081,-30.022c0.727,-6.671 5.002,-14.617 16.557,-14.617c9.483,0 15.06,7.946 15.786,14.617c0.97,12.39 5.997,22.457 15.082,30.2c9.085,7.744 20.29,11.616 33.615,11.616l180.826,-0c22.774,-0 41.731,7.148 56.873,21.444c15.142,14.296 22.713,31.451 22.713,51.465" style="fill:none;fill-rule:nonzero;stroke:#000;stroke-width:5px;"/></g><g id="translating"><text x="546.813px" y="22.412px" style="font-family:'FSElliotPro-Bold', 'FS Elliot Pro';font-weight:700;font-size:30px;">T<tspan x="562.953px 574.623px " y="22.412px 22.412px ">ra</tspan>nsla<tspan x="648.093px " y="22.412px ">t</tspan>ing</text><path d="M354.252,172.586c0,-18.823 6.057,-34.549 18.171,-47.177c16.716,-16.917 37.067,-25.375 61.052,-25.375l130.826,-0c13.325,-0 24.53,-3.931 33.615,-11.794c9.085,-7.863 14.113,-17.87 15.082,-30.022c0.726,-6.671 5.002,-14.617 16.556,-14.617c9.483,0 15.06,7.946 15.787,14.617c0.969,12.39 5.996,22.457 15.081,30.2c9.085,7.744 20.29,11.616 33.615,11.616l130.827,-0c22.773,-0 41.731,7.148 56.873,21.444c15.142,14.296 22.712,31.451 22.712,51.465" style="fill:none;fill-rule:nonzero;stroke:#000;stroke-width:5px;"/></g><g id="webservices"><g><path d="M1649.44,202.75c0,-7.491 -6.081,-13.572 -13.572,-13.572l-127.74,-0c-7.491,-0 -13.573,6.081 -13.573,13.572l0,108.582c0,7.49 6.082,13.572 13.573,13.572l127.74,0c7.491,0 13.572,-6.082 13.572,-13.572l0,-108.582Z" style="fill:none;stroke:#000;stroke-width:2px;stroke-miterlimit:1.5;"/><path d="M1638.55,205.819c-0,-1.164 -0.945,-2.109 -2.109,-2.109l-128.882,0c-1.164,0 -2.109,0.945 -2.109,2.109l-0,16.869c-0,1.164 0.945,2.108 2.109,2.108l128.882,0c1.164,0 2.109,-0.944 2.109,-2.108l-0,-16.869Z" style="fill:none;stroke:#000;stroke-width:4px;stroke-miterlimit:1.5;"/><g><path d="M1544,239.557c-0,-2.127 -1.727,-3.854 -3.854,-3.854l-30.829,-0c-2.127,-0 -3.854,1.727 -3.854,3.854l0,65.292c0,2.127 1.727,3.854 3.854,3.854l30.829,-0c2.127,-0 3.854,-1.727 3.854,-3.854l-0,-65.292Z" style="fill:none;stroke:#000;stroke-width:4px;stroke-miterlimit:1.5;"/><path d="M1638.53,243.003c-0,-4.029 -3.271,-7.3 -7.3,-7.3l-69.744,-0c-4.029,-0 -7.3,3.271 -7.3,7.3l-0,58.4c-0,4.029 3.271,7.3 7.3,7.3l69.744,-0c4.029,-0 7.3,-3.271 7.3,-7.3l-0,-58.4Z" style="fill:none;stroke:#000;stroke-width:4px;stroke-miterlimit:1.5;"/></g></g><text x="1509.88px" y="568.747px" style="font-family:'FSElliotPro', 'FS Elliot Pro';font-size:24px;">W<tspan x="1532.9px " y="568.747px ">e</tspan>bser<tspan x="1593.21px " y="568.747px ">v</tspan>ic<tspan x="1622.87px " y="568.747px ">e</tspan></text><g><path d="M1649.44,395.48c0,-7.49 -6.081,-13.572 -13.572,-13.572l-127.74,-0c-7.491,-0 -13.573,6.082 -13.573,13.572l0,108.582c0,7.491 6.082,13.572 13.573,13.572l127.74,0c7.491,0 13.572,-6.081 13.572,-13.572l0,-108.582Z" style="fill:none;stroke:#000;stroke-width:2px;stroke-miterlimit:1.5;"/><path d="M1638.55,398.549c-0,-1.164 -0.945,-2.108 -2.109,-2.108l-128.882,-0c-1.164,-0 -2.109,0.944 -2.109,2.108l-0,16.869c-0,1.164 0.945,2.108 2.109,2.108l128.882,0c1.164,0 2.109,-0.944 2.109,-2.108l-0,-16.869Z" style="fill:none;stroke:#000;stroke-width:4px;stroke-miterlimit:1.5;"/><g><path d="M1544,432.287c-0,-2.127 -1.727,-3.854 -3.854,-3.854l-30.829,-0c-2.127,-0 -3.854,1.727 -3.854,3.854l0,65.292c0,2.127 1.727,3.854 3.854,3.854l30.829,-0c2.127,-0 3.854,-1.727 3.854,-3.854l-0,-65.292Z" style="fill:none;stroke:#000;stroke-width:4px;stroke-miterlimit:1.5;"/><path d="M1638.53,435.733c-0,-4.029 -3.271,-7.3 -7.3,-7.3l-69.744,-0c-4.029,-0 -7.3,3.271 -7.3,7.3l-0,58.4c-0,4.029 3.271,7.3 7.3,7.3l69.744,-0c4.029,-0 7.3,-3.271 7.3,-7.3l-0,-58.4Z" style="fill:none;stroke:#000;stroke-width:4px;stroke-miterlimit:1.5;"/></g></g></g><g id="arrow4"><path d="M1437.05,451.513l1.203,5.273l-4.404,3.138" style="fill:none;stroke:#000;stroke-width:2px;stroke-linejoin:miter;stroke-miterlimit:10;"/><path d="M1188.74,361.818c0,-0 231.387,88.069 249.512,94.968" style="fill:none;stroke:#000;stroke-width:2px;stroke-miterlimit:1.5;"/><path d="M1434.01,262.099l4.225,3.376l-1.492,5.199" style="fill:none;stroke:#000;stroke-width:2px;stroke-linejoin:miter;stroke-miterlimit:10;"/><path d="M1188.74,344.994c0,0 231.202,-73.69 249.49,-79.519" style="fill:none;stroke:#000;stroke-width:2px;stroke-miterlimit:1.5;"/></g><g id="ministry2"><text x="1059.9px" y="482.21px" style="font-family:'FSElliotPro', 'FS Elliot Pro';font-size:24px;">Minis<tspan x="1116.28px 1125.9px 1135.67px " y="482.21px 482.21px 482.21px ">try</tspan></text><g><path d="M1172.09,322.813l-140.14,-0c-1.561,-0 -2.828,-1.266 -2.828,-2.828l-0,-5.37c-0,-1.562 1.267,-2.829 2.828,-2.829l140.14,0c1.562,0 2.828,1.267 2.828,2.829l0,5.37c0,1.562 -1.266,2.828 -2.828,2.828Z" style="fill:none;fill-rule:nonzero;stroke:#000;stroke-width:3px;stroke-linecap:butt;stroke-linejoin:miter;stroke-miterlimit:10;"/><path d="M1161.52,311.174c-2.639,-30.548 -28.267,-54.521 -59.499,-54.521c-31.231,0 -56.86,23.973 -59.499,54.521l118.998,-0Z" style="fill:none;fill-rule:nonzero;stroke:#000;stroke-width:3px;stroke-linecap:butt;stroke-linejoin:miter;stroke-miterlimit:10;"/><path d="M1172.51,417.152l-140.976,-0c-1.331,-0 -2.41,-1.08 -2.41,-2.41l0,-6.207c0,-1.331 1.079,-2.41 2.41,-2.41l140.976,0c1.331,0 2.41,1.079 2.41,2.41l0,6.207c0,1.33 -1.079,2.41 -2.41,2.41Z" style="fill:none;fill-rule:nonzero;stroke:#000;stroke-width:3px;stroke-linecap:butt;stroke-linejoin:miter;stroke-miterlimit:10;"/><rect x="1041.2" y="322.813" width="6.126" height="83.312" style="fill:none;stroke:#000;stroke-width:3px;stroke-linecap:butt;stroke-linejoin:miter;stroke-miterlimit:10;"/><rect x="1155.14" y="322.813" width="6.126" height="83.312" style="fill:none;stroke:#000;stroke-width:3px;stroke-linecap:butt;stroke-linejoin:miter;stroke-miterlimit:10;"/><rect x="1069.69" y="322.813" width="6.126" height="83.312" style="fill:none;stroke:#000;stroke-width:3px;stroke-linecap:butt;stroke-linejoin:miter;stroke-miterlimit:10;"/><rect x="1098.17" y="322.813" width="6.126" height="83.312" style="fill:none;stroke:#000;stroke-width:3px;stroke-linecap:butt;stroke-linejoin:miter;stroke-miterlimit:10;"/><rect x="1126.66" y="322.813" width="6.126" height="83.312" style="fill:none;stroke:#000;stroke-width:3px;stroke-linecap:butt;stroke-linejoin:miter;stroke-miterlimit:10;"/><rect x="1101.24" y="222.961" width="30.017" height="15.315" style="fill:none;stroke:#000;stroke-width:3px;stroke-linecap:butt;stroke-linejoin:miter;stroke-miterlimit:10;"/><path d="M1101.24,222.961l0,33.692" style="fill:none;fill-rule:nonzero;stroke:#000;stroke-width:3px;stroke-linecap:butt;stroke-linejoin:miter;stroke-miterlimit:10;"/></g></g><path id="arrow3" d="M992.54,356.662l3,4.5l-3,4.5" style="fill:none;stroke:#000;stroke-width:2px;stroke-linejoin:miter;stroke-miterlimit:10;"/><path d="M860.41,361.162l135.13,-0" style="fill:none;stroke:#000;stroke-width:2px;stroke-miterlimit:1.5;"/><g id="FIM"><text x="748.279px" y="481.982px" style="font-family:'FSElliotPro', 'FS Elliot Pro';font-size:24px;">FIM</text><g><path d="M764.499,383.094l-40.092,-22.746l-0,45.5l40.092,22.747l0,-45.501Zm41.313,-22.716l0,45.501l-40.039,22.715l0,-45.5l40.039,-22.716Zm-80.762,-1.11l40.086,22.742l40.087,-22.742l-40.087,-22.743l-40.086,22.743Z" style="fill:none;stroke:#000;stroke-width:2px;stroke-miterlimit:1.5;"/><path d="M682.997,290.046l-0,45.387l40.136,22.771l-0,-45.378l-40.136,-22.78Zm81.36,-0.024l-0,45.468l-39.95,22.665l-0,-45.468l39.95,-22.665Zm-80.816,-1.113l40.106,22.764l40.194,-22.804l-40.114,-22.759l-40.186,22.799Z" style="fill:none;stroke:#000;stroke-width:2px;stroke-miterlimit:1.5;"/><path d="M847.25,290.089l-40.11,22.62l-0,45.481l40.11,-22.757l0,-45.344Zm-81.385,-0.096l40.001,22.694l-0,45.483l-40.001,-22.695l-0,-45.482Zm40.663,-23.878l40.216,22.816l-40.222,22.683l-40.095,-22.748l40.101,-22.751Z" style="fill:none;stroke:#000;stroke-width:2px;stroke-miterlimit:1.5;"/></g></g><path id="arrow2" d="M660.114,356.662l3,4.5l-3,4.5" style="fill:none;stroke:#000;stroke-width:2px;stroke-linejoin:miter;stroke-miterlimit:10;"/><path d="M527.984,361.162l135.13,-0" style="fill:none;stroke:#000;stroke-width:2px;stroke-miterlimit:1.5;"/><g id="service"><g><path d="M483.357,292.296c-0,-5.77 -4.684,-10.453 -10.453,-10.453l-83.624,-0c-5.769,-0 -10.453,4.683 -10.453,10.453l-0,113.698c-0,5.769 4.684,10.453 10.453,10.453l83.624,0c5.769,0 10.453,-4.684 10.453,-10.453l-0,-113.698Z" style="fill:none;stroke:#000;stroke-width:3px;stroke-miterlimit:1.5;"/><path d="M396.046,301.658l70.092,0" style="fill:none;stroke:#000;stroke-width:4px;stroke-miterlimit:1.5;"/><path d="M396.046,324.989l70.092,-0" style="fill:none;stroke:#000;stroke-width:4px;stroke-miterlimit:1.5;"/><path d="M396.046,348.319l70.092,0" style="fill:none;stroke:#000;stroke-width:4px;stroke-miterlimit:1.5;"/></g><text x="391.037px" y="480.844px" style="font-family:'FSElliotPro', 'FS Elliot Pro';font-size:24px;">Ser<tspan x="427.613px " y="480.844px ">v</tspan>ic<tspan x="457.277px " y="480.844px ">e</tspan></text></g><path id="arrow1" d="M334.118,355.45l3,4.5l-3,4.5" style="fill:none;stroke:#000;stroke-width:2px;stroke-linejoin:miter;stroke-miterlimit:10;"/><path d="M201.988,359.95l135.13,-0" style="fill:none;stroke:#000;stroke-width:2px;stroke-miterlimit:1.5;"/><g id="ministry1"><text x="41.663px" y="482.21px" style="font-family:'FSElliotPro', 'FS Elliot Pro';font-size:24px;">Minse<tspan x="105.239px 114.287px 127.175px 136.943px " y="482.21px 482.21px 482.21px 482.21px ">tery</tspan></text><g><path d="M158.653,322.813l-140.14,-0c-1.561,-0 -2.828,-1.266 -2.828,-2.828l-0,-5.37c-0,-1.562 1.267,-2.829 2.828,-2.829l140.14,0c1.562,0 2.828,1.267 2.828,2.829l0,5.37c0,1.562 -1.266,2.828 -2.828,2.828Z" style="fill:none;fill-rule:nonzero;stroke:#000;stroke-width:3px;stroke-linecap:butt;stroke-linejoin:miter;stroke-miterlimit:10;"/><path d="M148.082,311.174c-2.639,-30.548 -28.267,-54.521 -59.499,-54.521c-31.232,0 -56.86,23.973 -59.499,54.521l118.998,-0Z" style="fill:none;fill-rule:nonzero;stroke:#000;stroke-width:3px;stroke-linecap:butt;stroke-linejoin:miter;stroke-miterlimit:10;"/><path d="M159.071,417.152l-140.976,-0c-1.331,-0 -2.41,-1.08 -2.41,-2.41l-0,-6.207c-0,-1.331 1.079,-2.41 2.41,-2.41l140.976,0c1.331,0 2.41,1.079 2.41,2.41l0,6.207c0,1.33 -1.079,2.41 -2.41,2.41Z" style="fill:none;fill-rule:nonzero;stroke:#000;stroke-width:3px;stroke-linecap:butt;stroke-linejoin:miter;stroke-miterlimit:10;"/><rect x="27.767" y="322.813" width="6.126" height="83.312" style="fill:none;stroke:#000;stroke-width:3px;stroke-linecap:butt;stroke-linejoin:miter;stroke-miterlimit:10;"/><rect x="141.708" y="322.813" width="6.126" height="83.312" style="fill:none;stroke:#000;stroke-width:3px;stroke-linecap:butt;stroke-linejoin:miter;stroke-miterlimit:10;"/><rect x="56.252" y="322.813" width="6.126" height="83.312" style="fill:none;stroke:#000;stroke-width:3px;stroke-linecap:butt;stroke-linejoin:miter;stroke-miterlimit:10;"/><rect x="84.737" y="322.813" width="6.126" height="83.312" style="fill:none;stroke:#000;stroke-width:3px;stroke-linecap:butt;stroke-linejoin:miter;stroke-miterlimit:10;"/><rect x="113.223" y="322.813" width="6.126" height="83.312" style="fill:none;stroke:#000;stroke-width:3px;stroke-linecap:butt;stroke-linejoin:miter;stroke-miterlimit:10;"/><rect x="87.8" y="222.961" width="30.017" height="15.315" style="fill:none;stroke:#000;stroke-width:3px;stroke-linecap:butt;stroke-linejoin:miter;stroke-miterlimit:10;"/><path d="M87.8,222.961l0,33.692" style="fill:none;fill-rule:nonzero;stroke:#000;stroke-width:3px;stroke-linecap:butt;stroke-linejoin:miter;stroke-miterlimit:10;"/></g></g></g></svg>