<svg width="315" height="334" viewBox="0 0 315 334" fill="none" xmlns="http://www.w3.org/2000/svg">
<path d="M113.608 25.3555V21.6055C114.287 22.1758 115.026 22.6055 115.823 22.8945C116.62 23.1758 117.424 23.3164 118.237 23.3164C118.713 23.3164 119.127 23.2734 119.479 23.1875C119.838 23.1016 120.135 22.9844 120.37 22.8359C120.612 22.6797 120.791 22.5 120.909 22.2969C121.026 22.0859 121.084 21.8594 121.084 21.6172C121.084 21.2891 120.991 20.9961 120.803 20.7383C120.616 20.4805 120.358 20.2422 120.03 20.0234C119.709 19.8047 119.327 19.5938 118.881 19.3906C118.436 19.1875 117.955 18.9805 117.44 18.7695C116.127 18.2227 115.147 17.5547 114.498 16.7656C113.858 15.9766 113.537 15.0234 113.537 13.9062C113.537 13.0312 113.713 12.2812 114.065 11.6562C114.416 11.0234 114.893 10.5039 115.495 10.0977C116.104 9.69141 116.807 9.39453 117.604 9.20703C118.401 9.01172 119.245 8.91406 120.135 8.91406C121.01 8.91406 121.784 8.96875 122.455 9.07812C123.135 9.17969 123.76 9.33984 124.33 9.55859V13.0625C124.049 12.8672 123.741 12.6953 123.405 12.5469C123.077 12.3984 122.737 12.2773 122.385 12.1836C122.034 12.082 121.682 12.0078 121.33 11.9609C120.987 11.9141 120.659 11.8906 120.346 11.8906C119.916 11.8906 119.526 11.9336 119.174 12.0195C118.823 12.0977 118.526 12.2109 118.284 12.3594C118.041 12.5078 117.854 12.6875 117.721 12.8984C117.588 13.1016 117.522 13.332 117.522 13.5898C117.522 13.8711 117.596 14.125 117.745 14.3516C117.893 14.5703 118.104 14.7812 118.377 14.9844C118.651 15.1797 118.983 15.375 119.373 15.5703C119.764 15.7578 120.205 15.9531 120.698 16.1562C121.37 16.4375 121.971 16.7383 122.502 17.0586C123.041 17.3711 123.502 17.7266 123.885 18.125C124.268 18.5234 124.561 18.9805 124.764 19.4961C124.967 20.0039 125.069 20.5977 125.069 21.2773C125.069 22.2148 124.889 23.0039 124.53 23.6445C124.178 24.2773 123.698 24.793 123.088 25.1914C122.479 25.582 121.768 25.8633 120.955 26.0352C120.151 26.207 119.299 26.293 118.401 26.293C117.479 26.293 116.6 26.2148 115.764 26.0586C114.936 25.9023 114.217 25.668 113.608 25.3555ZM140.191 26H136.499V19.1797C136.499 17.4219 135.859 16.543 134.577 16.543C133.921 16.543 133.39 16.7891 132.984 17.2812C132.577 17.7734 132.374 18.3984 132.374 19.1562V26H128.671V8.23438H132.374V15.7812H132.421C133.327 14.3984 134.558 13.707 136.112 13.707C138.831 13.707 140.191 15.3477 140.191 18.6289V26ZM154.316 26H150.812V24.2773H150.766C149.961 25.6211 148.77 26.293 147.191 26.293C146.027 26.293 145.109 25.9648 144.437 25.3086C143.773 24.6445 143.441 23.7617 143.441 22.6602C143.441 20.332 144.82 18.9883 147.578 18.6289L150.836 18.1953C150.836 16.8828 150.125 16.2266 148.703 16.2266C147.273 16.2266 145.914 16.6523 144.625 17.5039V14.7148C145.141 14.4492 145.844 14.2148 146.734 14.0117C147.633 13.8086 148.449 13.707 149.184 13.707C152.605 13.707 154.316 15.4141 154.316 18.8281V26ZM150.836 21.125V20.3164L148.656 20.5977C147.453 20.7539 146.852 21.2969 146.852 22.2266C146.852 22.6484 146.996 22.9961 147.285 23.2695C147.582 23.5352 147.98 23.668 148.48 23.668C149.176 23.668 149.742 23.4297 150.18 22.9531C150.617 22.4688 150.836 21.8594 150.836 21.125ZM166.274 17.3398C165.829 17.0977 165.309 16.9766 164.716 16.9766C163.911 16.9766 163.282 17.2734 162.829 17.8672C162.376 18.4531 162.149 19.2539 162.149 20.2695V26H158.446V14H162.149V16.2266H162.196C162.782 14.6016 163.837 13.7891 165.36 13.7891C165.751 13.7891 166.055 13.8359 166.274 13.9297V17.3398ZM179.896 21.0547H172.068C172.193 22.7969 173.291 23.668 175.361 23.668C176.681 23.668 177.841 23.3555 178.841 22.7305V25.4023C177.732 25.9961 176.291 26.293 174.517 26.293C172.58 26.293 171.076 25.7578 170.005 24.6875C168.935 23.6094 168.4 22.1094 168.4 20.1875C168.4 18.1953 168.978 16.6172 170.134 15.4531C171.291 14.2891 172.712 13.707 174.4 13.707C176.15 13.707 177.502 14.2266 178.455 15.2656C179.416 16.3047 179.896 17.7148 179.896 19.4961V21.0547ZM176.462 18.7812C176.462 17.0625 175.767 16.2031 174.377 16.2031C173.783 16.2031 173.267 16.4492 172.83 16.9414C172.4 17.4336 172.138 18.0469 172.045 18.7812H176.462Z" fill="black"/>
<path d="M239.02 217H235.328V210.156C235.328 208.414 234.688 207.543 233.406 207.543C232.797 207.543 232.301 207.805 231.918 208.328C231.535 208.852 231.344 209.504 231.344 210.285V217H227.641V210.086C227.641 208.391 227.012 207.543 225.754 207.543C225.121 207.543 224.613 207.793 224.23 208.293C223.855 208.793 223.668 209.473 223.668 210.332V217H219.965V205H223.668V206.875H223.715C224.098 206.234 224.633 205.715 225.32 205.316C226.016 204.91 226.773 204.707 227.594 204.707C229.289 204.707 230.449 205.453 231.074 206.945C231.988 205.453 233.332 204.707 235.105 204.707C237.715 204.707 239.02 206.316 239.02 209.535V217ZM253.134 217H249.63V215.277H249.583C248.778 216.621 247.587 217.293 246.009 217.293C244.845 217.293 243.927 216.965 243.255 216.309C242.591 215.645 242.259 214.762 242.259 213.66C242.259 211.332 243.638 209.988 246.395 209.629L249.653 209.195C249.653 207.883 248.942 207.227 247.52 207.227C246.091 207.227 244.731 207.652 243.442 208.504V205.715C243.958 205.449 244.661 205.215 245.552 205.012C246.45 204.809 247.266 204.707 248.001 204.707C251.423 204.707 253.134 206.414 253.134 209.828V217ZM249.653 212.125V211.316L247.473 211.598C246.27 211.754 245.669 212.297 245.669 213.227C245.669 213.648 245.813 213.996 246.102 214.27C246.399 214.535 246.798 214.668 247.298 214.668C247.993 214.668 248.559 214.43 248.997 213.953C249.434 213.469 249.653 212.859 249.653 212.125ZM268.853 217H265.162V210.332C265.162 208.473 264.498 207.543 263.17 207.543C262.529 207.543 262.002 207.789 261.588 208.281C261.173 208.773 260.966 209.398 260.966 210.156V217H257.263V205H260.966V206.898H261.013C261.896 205.438 263.181 204.707 264.869 204.707C267.525 204.707 268.853 206.355 268.853 209.652V217ZM282.979 217H279.475V215.277H279.428C278.623 216.621 277.432 217.293 275.854 217.293C274.69 217.293 273.772 216.965 273.1 216.309C272.436 215.645 272.104 214.762 272.104 213.66C272.104 211.332 273.483 209.988 276.241 209.629L279.498 209.195C279.498 207.883 278.787 207.227 277.366 207.227C275.936 207.227 274.577 207.652 273.287 208.504V205.715C273.803 205.449 274.506 205.215 275.397 205.012C276.295 204.809 277.112 204.707 277.846 204.707C281.268 204.707 282.979 206.414 282.979 209.828V217ZM279.498 212.125V211.316L277.319 211.598C276.116 211.754 275.514 212.297 275.514 213.227C275.514 213.648 275.659 213.996 275.948 214.27C276.245 214.535 276.643 214.668 277.143 214.668C277.838 214.668 278.405 214.43 278.842 213.953C279.28 213.469 279.498 212.859 279.498 212.125ZM298.874 215.629C298.874 217.855 298.23 219.578 296.941 220.797C295.652 222.023 293.784 222.637 291.339 222.637C289.722 222.637 288.441 222.406 287.495 221.945V218.828C288.73 219.547 289.976 219.906 291.234 219.906C292.484 219.906 293.452 219.574 294.14 218.91C294.827 218.254 295.171 217.359 295.171 216.227V215.277H295.124C294.28 216.621 293.034 217.293 291.386 217.293C289.855 217.293 288.64 216.754 287.741 215.676C286.843 214.598 286.394 213.152 286.394 211.34C286.394 209.309 286.894 207.695 287.894 206.5C288.894 205.305 290.21 204.707 291.843 204.707C293.304 204.707 294.398 205.27 295.124 206.395H295.171V205H298.874V215.629ZM295.218 211.234V210.285C295.218 209.527 294.991 208.883 294.538 208.352C294.093 207.812 293.511 207.543 292.792 207.543C291.972 207.543 291.327 207.863 290.859 208.504C290.39 209.145 290.155 210.047 290.155 211.211C290.155 212.211 290.378 213.004 290.823 213.59C291.269 214.168 291.878 214.457 292.652 214.457C293.417 214.457 294.034 214.164 294.503 213.578C294.98 212.984 295.218 212.203 295.218 211.234ZM313.949 212.055H306.121C306.246 213.797 307.344 214.668 309.414 214.668C310.734 214.668 311.895 214.355 312.895 213.73V216.402C311.785 216.996 310.344 217.293 308.57 217.293C306.633 217.293 305.129 216.758 304.059 215.688C302.988 214.609 302.453 213.109 302.453 211.188C302.453 209.195 303.031 207.617 304.188 206.453C305.344 205.289 306.766 204.707 308.453 204.707C310.203 204.707 311.555 205.227 312.508 206.266C313.469 207.305 313.949 208.715 313.949 210.496V212.055ZM310.516 209.781C310.516 208.062 309.82 207.203 308.43 207.203C307.836 207.203 307.32 207.449 306.883 207.941C306.453 208.434 306.191 209.047 306.098 209.781H310.516Z" fill="black"/>
<path d="M13.0586 205L8.59375 217H4.375L0.121094 205H4.08203L6.16797 212.395C6.40234 213.23 6.53906 213.941 6.57812 214.527H6.625C6.67969 213.973 6.82422 213.285 7.05859 212.465L9.19141 205H13.0586ZM26.3875 212.055H18.5594C18.6844 213.797 19.782 214.668 21.8523 214.668C23.1727 214.668 24.3328 214.355 25.3328 213.73V216.402C24.2234 216.996 22.782 217.293 21.0086 217.293C19.0711 217.293 17.5672 216.758 16.4969 215.688C15.4266 214.609 14.8914 213.109 14.8914 211.188C14.8914 209.195 15.4695 207.617 16.6258 206.453C17.782 205.289 19.2039 204.707 20.8914 204.707C22.6414 204.707 23.993 205.227 24.9461 206.266C25.907 207.305 26.3875 208.715 26.3875 210.496V212.055ZM22.9539 209.781C22.9539 208.062 22.2586 207.203 20.868 207.203C20.2742 207.203 19.7586 207.449 19.3211 207.941C18.8914 208.434 18.6297 209.047 18.5359 209.781H22.9539ZM37.6187 208.34C37.1734 208.098 36.6539 207.977 36.0602 207.977C35.2555 207.977 34.6266 208.273 34.1734 208.867C33.7203 209.453 33.4937 210.254 33.4937 211.27V217H29.7906V205H33.4937V207.227H33.5406C34.1266 205.602 35.1812 204.789 36.7047 204.789C37.0953 204.789 37.4 204.836 37.6187 204.93V208.34ZM42.5219 203.102C41.8969 203.102 41.3852 202.918 40.9867 202.551C40.5883 202.176 40.3891 201.719 40.3891 201.18C40.3891 200.625 40.5883 200.172 40.9867 199.82C41.3852 199.469 41.8969 199.293 42.5219 199.293C43.1547 199.293 43.6664 199.469 44.057 199.82C44.4555 200.172 44.6547 200.625 44.6547 201.18C44.6547 201.742 44.4555 202.203 44.057 202.562C43.6664 202.922 43.1547 203.102 42.5219 203.102ZM44.35 217H40.6469V205H44.35V217ZM56.4953 202.07C56.0187 201.883 55.5617 201.789 55.1242 201.789C53.9367 201.789 53.343 202.434 53.343 203.723V205H56.0852V207.73H53.343V217H49.6516V207.73H47.6359V205H49.6516V203.512C49.6516 202.145 50.0969 201.043 50.9875 200.207C51.8781 199.371 53.0891 198.953 54.6203 198.953C55.3703 198.953 55.9953 199.031 56.4953 199.188V202.07ZM70.9961 205L66.1211 217.961C64.9492 221.078 63.1836 222.637 60.8242 222.637C59.9258 222.637 59.1875 222.535 58.6094 222.332V219.379C59.1016 219.668 59.6367 219.812 60.2148 219.812C61.168 219.812 61.832 219.363 62.207 218.465L62.8398 216.977L57.9648 205H62.0664L64.3047 212.301C64.4453 212.754 64.5547 213.289 64.6328 213.906H64.6797C64.75 213.453 64.8789 212.926 65.0664 212.324L67.3281 205H70.9961Z" fill="black"/>
<path d="M195.262 19.7002C195.27 19.7029 195.278 19.7057 195.287 19.7085C196.229 20.0191 197.167 20.3398 198.101 20.6707C227.737 31.175 252.75 51.82 268.68 79.0038C284.61 106.188 290.396 138.1 285.075 169.09C284.907 170.068 284.728 171.045 284.537 172.021C284.536 172.028 284.535 172.034 284.534 172.041" stroke="black" stroke-width="3"/>
<path d="M102 19.7002C101.992 19.7029 101.983 19.7057 101.975 19.7085C101.032 20.0191 100.094 20.3398 99.1611 20.6707C69.5243 31.175 44.5115 51.82 28.5817 79.0038C12.6519 106.188 6.8661 138.1 12.1872 169.09C12.3551 170.068 12.5342 171.045 12.7243 172.021C12.7255 172.028 12.7268 172.034 12.7281 172.041" stroke="black" stroke-width="3"/>
<path d="M235.665 252.899C235.659 252.905 235.652 252.911 235.646 252.917C234.922 253.596 234.192 254.266 233.454 254.928C210.049 275.924 179.952 288.008 148.459 288.988C116.967 289.967 86.1775 279.776 61.5125 260.275C60.7339 259.659 59.9615 259.034 59.1954 258.4C59.1903 258.396 59.1852 258.392 59.1801 258.388" stroke="black" stroke-width="3"/>
</svg>
