<svg width="467" height="291" viewBox="0 0 467 291" fill="none" xmlns="http://www.w3.org/2000/svg">
<path d="M289 145.5C289 66.2471 224.753 2 145.5 2C66.2471 2 2 66.2471 2 145.5C2 224.753 66.2471 289 145.5 289C224.753 289 289 224.753 289 145.5Z" stroke="black" stroke-width="4" stroke-miterlimit="1.5" stroke-linecap="round" stroke-linejoin="round"/>
<path d="M464.238 145.5C464.238 66.2471 399.991 2 320.738 2C241.485 2 177.238 66.2471 177.238 145.5C177.238 224.753 241.485 289 320.738 289C399.991 289 464.238 224.753 464.238 145.5Z" stroke="black" stroke-width="4" stroke-miterlimit="1.5" stroke-linecap="round" stroke-linejoin="round"/>
<path d="M247.995 244.991L211.255 237.21" stroke="black" stroke-width="4" stroke-miterlimit="1.5" stroke-linecap="round" stroke-linejoin="round"/>
<path d="M266.857 221.957L191.407 205.981" stroke="black" stroke-width="4" stroke-miterlimit="1.5" stroke-linecap="round" stroke-linejoin="round"/>
<path d="M278.861 196.205L182.364 175.771" stroke="black" stroke-width="4" stroke-miterlimit="1.5" stroke-linecap="round" stroke-linejoin="round"/>
<path d="M287.221 170.025L177.851 146.867" stroke="black" stroke-width="4" stroke-miterlimit="1.5" stroke-linecap="round" stroke-linejoin="round"/>
<path d="M287.664 142.031L181.913 119.637" stroke="black" stroke-width="4" stroke-miterlimit="1.5" stroke-linecap="round" stroke-linejoin="round"/>
<path d="M284.912 113.632L189.15 93.3558" stroke="black" stroke-width="4" stroke-miterlimit="1.5" stroke-linecap="round" stroke-linejoin="round"/>
<path d="M274.23 83.8394L200.434 68.2131" stroke="black" stroke-width="4" stroke-miterlimit="1.5" stroke-linecap="round" stroke-linejoin="round"/>
<path fill-rule="evenodd" clip-rule="evenodd" d="M219.953 44.2366L253.823 51.4087L219.953 44.2366Z" stroke="black" stroke-width="4" stroke-miterlimit="1.5" stroke-linecap="round" stroke-linejoin="round"/>
<path d="M64.5791 142.504C64.5791 146.968 70.8431 145.408 70.8431 147.64C70.8431 148.456 70.0991 149.008 68.9231 149.008C67.7951 149.008 66.4991 148.72 65.1311 148.168L64.4831 150.352C66.1391 150.976 67.7231 151.288 69.1631 151.288C71.9471 151.288 73.8671 149.776 73.8671 147.64C73.8671 143.08 67.5791 144.64 67.5791 142.504C67.5791 141.736 68.2991 141.232 69.4031 141.232C70.4591 141.232 71.6351 141.52 72.8111 141.976L73.4831 139.768C71.9951 139.24 70.5311 138.952 69.1631 138.952C66.4511 138.952 64.5791 140.44 64.5791 142.504ZM80.2313 135.784H77.1593V139.24H74.9753V141.568H77.1593V147.496C77.1593 149.752 78.7913 151.288 81.1433 151.288C81.9833 151.288 82.8713 151.168 83.8073 150.928L83.3993 148.624C82.8473 148.768 82.3433 148.84 81.8873 148.84C80.9033 148.84 80.2313 148.168 80.2313 147.184V141.568H83.4953V139.24H80.2313V135.784ZM85.2722 147.592C85.2722 149.752 87.0242 151.288 89.4722 151.288C90.9122 151.288 92.3282 150.712 93.3362 149.704C93.7442 150.688 94.6562 151.288 95.8562 151.288C96.4322 151.288 96.9842 151.216 97.4882 151.12L97.2722 148.888C97.1762 148.912 96.9122 148.96 96.6722 148.96C96.1682 148.96 95.8562 148.624 95.8562 148.12V143.344C95.8562 140.728 93.8882 138.952 90.9122 138.952C89.3282 138.952 87.6722 139.264 85.9202 139.936L86.6882 142.072C88.0562 141.52 89.3522 141.232 90.5522 141.232C92.0162 141.232 92.9762 142.096 92.9762 143.296V143.92C92.2082 143.752 91.4162 143.68 90.6962 143.68C87.2882 143.68 85.2722 145.12 85.2722 147.592ZM88.2242 147.424C88.2242 146.2 89.3042 145.456 91.0562 145.456C91.7042 145.456 92.3522 145.528 92.9762 145.696V146.392C92.9762 148 91.8962 149.128 90.2642 149.128C89.1122 149.128 88.2242 148.384 88.2242 147.424ZM102.825 135.784H99.753V139.24H97.569V141.568H99.753V147.496C99.753 149.752 101.385 151.288 103.737 151.288C104.577 151.288 105.465 151.168 106.401 150.928L105.993 148.624C105.441 148.768 104.937 148.84 104.481 148.84C103.497 148.84 102.825 148.168 102.825 147.184V141.568H106.089V139.24H102.825V135.784ZM107.28 145.12C107.28 148.744 109.896 151.288 113.688 151.288C115.08 151.288 116.736 150.928 118.392 150.112L117.456 148.024C116.232 148.696 115.08 149.008 114.072 149.008C112.056 149.008 110.568 147.76 110.352 145.888H118.92C118.944 145.576 118.968 145.24 118.968 144.904C118.968 141.376 116.64 138.952 113.304 138.952C109.752 138.952 107.28 141.496 107.28 145.12ZM113.304 141.232C114.84 141.232 115.92 142.36 116.016 144.04H110.352C110.544 142.36 111.72 141.232 113.304 141.232Z" fill="black"/>
<path d="M341.483 145.12C341.483 148.72 344.051 151.288 347.699 151.288C349.259 151.288 350.795 150.832 352.211 149.92L350.963 147.832C350.051 148.456 349.115 148.84 348.131 148.84C346.067 148.84 344.603 147.304 344.603 145.12C344.603 142.936 346.067 141.4 348.131 141.4C349.115 141.4 350.051 141.76 350.963 142.384L352.211 140.32C350.795 139.408 349.259 138.952 347.699 138.952C344.051 138.952 341.483 141.496 341.483 145.12ZM354.179 151H357.251V139.24H354.179V151ZM353.891 135.88C353.891 136.96 354.659 137.728 355.715 137.728C356.795 137.728 357.563 136.96 357.563 135.88C357.563 134.8 356.795 134.032 355.715 134.032C354.659 134.032 353.891 134.8 353.891 135.88ZM364.614 135.784H361.542V139.24H359.358V141.568H361.542V147.496C361.542 149.752 363.174 151.288 365.526 151.288C366.366 151.288 367.254 151.168 368.19 150.928L367.782 148.624C367.23 148.768 366.726 148.84 366.27 148.84C365.286 148.84 364.614 148.168 364.614 147.184V141.568H367.878V139.24H364.614V135.784ZM370.351 151H373.423V139.24H370.351V151ZM370.063 135.88C370.063 136.96 370.831 137.728 371.887 137.728C372.967 137.728 373.735 136.96 373.735 135.88C373.735 134.8 372.967 134.032 371.887 134.032C370.831 134.032 370.063 134.8 370.063 135.88ZM375.866 151H386.018V148.672H379.85L385.826 140.92V139.24H376.058V141.568H381.842L375.866 149.296V151ZM387.468 145.12C387.468 148.744 390.084 151.288 393.876 151.288C395.268 151.288 396.924 150.928 398.58 150.112L397.644 148.024C396.42 148.696 395.268 149.008 394.26 149.008C392.244 149.008 390.756 147.76 390.54 145.888H399.108C399.132 145.576 399.156 145.24 399.156 144.904C399.156 141.376 396.828 138.952 393.492 138.952C389.94 138.952 387.468 141.496 387.468 145.12ZM393.492 141.232C395.028 141.232 396.108 142.36 396.204 144.04H390.54C390.732 142.36 391.908 141.232 393.492 141.232ZM401.382 151H404.454V144.52C404.454 142.72 405.678 141.472 407.334 141.472C408.75 141.472 409.782 142.48 409.782 143.92V151H412.854V143.44C412.854 140.8 410.958 138.952 408.27 138.952C406.566 138.952 405.102 139.672 404.214 140.944L403.83 139.24H401.382V151Z" fill="black"/>
</svg>
