<svg width="349" height="334" viewBox="0 0 349 334" fill="none" xmlns="http://www.w3.org/2000/svg">
<path d="M147.608 25.3555V21.6055C148.287 22.1758 149.026 22.6055 149.823 22.8945C150.62 23.1758 151.424 23.3164 152.237 23.3164C152.713 23.3164 153.127 23.2734 153.479 23.1875C153.838 23.1016 154.135 22.9844 154.37 22.8359C154.612 22.6797 154.791 22.5 154.909 22.2969C155.026 22.0859 155.084 21.8594 155.084 21.6172C155.084 21.2891 154.991 20.9961 154.803 20.7383C154.616 20.4805 154.358 20.2422 154.03 20.0234C153.709 19.8047 153.327 19.5938 152.881 19.3906C152.436 19.1875 151.955 18.9805 151.44 18.7695C150.127 18.2227 149.147 17.5547 148.498 16.7656C147.858 15.9766 147.537 15.0234 147.537 13.9062C147.537 13.0312 147.713 12.2812 148.065 11.6562C148.416 11.0234 148.893 10.5039 149.495 10.0977C150.104 9.69141 150.807 9.39453 151.604 9.20703C152.401 9.01172 153.245 8.91406 154.135 8.91406C155.01 8.91406 155.784 8.96875 156.455 9.07812C157.135 9.17969 157.76 9.33984 158.33 9.55859V13.0625C158.049 12.8672 157.741 12.6953 157.405 12.5469C157.077 12.3984 156.737 12.2773 156.385 12.1836C156.034 12.082 155.682 12.0078 155.33 11.9609C154.987 11.9141 154.659 11.8906 154.346 11.8906C153.916 11.8906 153.526 11.9336 153.174 12.0195C152.823 12.0977 152.526 12.2109 152.284 12.3594C152.041 12.5078 151.854 12.6875 151.721 12.8984C151.588 13.1016 151.522 13.332 151.522 13.5898C151.522 13.8711 151.596 14.125 151.745 14.3516C151.893 14.5703 152.104 14.7812 152.377 14.9844C152.651 15.1797 152.983 15.375 153.373 15.5703C153.764 15.7578 154.205 15.9531 154.698 16.1562C155.37 16.4375 155.971 16.7383 156.502 17.0586C157.041 17.3711 157.502 17.7266 157.885 18.125C158.268 18.5234 158.561 18.9805 158.764 19.4961C158.967 20.0039 159.069 20.5977 159.069 21.2773C159.069 22.2148 158.889 23.0039 158.53 23.6445C158.178 24.2773 157.698 24.793 157.088 25.1914C156.479 25.582 155.768 25.8633 154.955 26.0352C154.151 26.207 153.299 26.293 152.401 26.293C151.479 26.293 150.6 26.2148 149.764 26.0586C148.936 25.9023 148.217 25.668 147.608 25.3555ZM174.191 26H170.499V19.1797C170.499 17.4219 169.859 16.543 168.577 16.543C167.921 16.543 167.39 16.7891 166.984 17.2812C166.577 17.7734 166.374 18.3984 166.374 19.1562V26H162.671V8.23438H166.374V15.7812H166.421C167.327 14.3984 168.558 13.707 170.112 13.707C172.831 13.707 174.191 15.3477 174.191 18.6289V26ZM188.316 26H184.812V24.2773H184.766C183.961 25.6211 182.77 26.293 181.191 26.293C180.027 26.293 179.109 25.9648 178.437 25.3086C177.773 24.6445 177.441 23.7617 177.441 22.6602C177.441 20.332 178.82 18.9883 181.578 18.6289L184.836 18.1953C184.836 16.8828 184.125 16.2266 182.703 16.2266C181.273 16.2266 179.914 16.6523 178.625 17.5039V14.7148C179.141 14.4492 179.844 14.2148 180.734 14.0117C181.633 13.8086 182.449 13.707 183.184 13.707C186.605 13.707 188.316 15.4141 188.316 18.8281V26ZM184.836 21.125V20.3164L182.656 20.5977C181.453 20.7539 180.852 21.2969 180.852 22.2266C180.852 22.6484 180.996 22.9961 181.285 23.2695C181.582 23.5352 181.98 23.668 182.48 23.668C183.176 23.668 183.742 23.4297 184.18 22.9531C184.617 22.4688 184.836 21.8594 184.836 21.125ZM200.274 17.3398C199.829 17.0977 199.309 16.9766 198.716 16.9766C197.911 16.9766 197.282 17.2734 196.829 17.8672C196.376 18.4531 196.149 19.2539 196.149 20.2695V26H192.446V14H196.149V16.2266H196.196C196.782 14.6016 197.837 13.7891 199.36 13.7891C199.751 13.7891 200.055 13.8359 200.274 13.9297V17.3398ZM213.896 21.0547H206.068C206.193 22.7969 207.291 23.668 209.361 23.668C210.681 23.668 211.841 23.3555 212.841 22.7305V25.4023C211.732 25.9961 210.291 26.293 208.517 26.293C206.58 26.293 205.076 25.7578 204.005 24.6875C202.935 23.6094 202.4 22.1094 202.4 20.1875C202.4 18.1953 202.978 16.6172 204.134 15.4531C205.291 14.2891 206.712 13.707 208.4 13.707C210.15 13.707 211.502 14.2266 212.455 15.2656C213.416 16.3047 213.896 17.7148 213.896 19.4961V21.0547ZM210.462 18.7812C210.462 17.0625 209.767 16.2031 208.377 16.2031C207.783 16.2031 207.267 16.4492 206.83 16.9414C206.4 17.4336 206.138 18.0469 206.045 18.7812H210.462Z" fill="black"/>
<path d="M273.02 217H269.328V210.156C269.328 208.414 268.688 207.543 267.406 207.543C266.797 207.543 266.301 207.805 265.918 208.328C265.535 208.852 265.344 209.504 265.344 210.285V217H261.641V210.086C261.641 208.391 261.012 207.543 259.754 207.543C259.121 207.543 258.613 207.793 258.23 208.293C257.855 208.793 257.668 209.473 257.668 210.332V217H253.965V205H257.668V206.875H257.715C258.098 206.234 258.633 205.715 259.32 205.316C260.016 204.91 260.773 204.707 261.594 204.707C263.289 204.707 264.449 205.453 265.074 206.945C265.988 205.453 267.332 204.707 269.105 204.707C271.715 204.707 273.02 206.316 273.02 209.535V217ZM287.134 217H283.63V215.277H283.583C282.778 216.621 281.587 217.293 280.009 217.293C278.845 217.293 277.927 216.965 277.255 216.309C276.591 215.645 276.259 214.762 276.259 213.66C276.259 211.332 277.638 209.988 280.395 209.629L283.653 209.195C283.653 207.883 282.942 207.227 281.52 207.227C280.091 207.227 278.731 207.652 277.442 208.504V205.715C277.958 205.449 278.661 205.215 279.552 205.012C280.45 204.809 281.266 204.707 282.001 204.707C285.423 204.707 287.134 206.414 287.134 209.828V217ZM283.653 212.125V211.316L281.473 211.598C280.27 211.754 279.669 212.297 279.669 213.227C279.669 213.648 279.813 213.996 280.102 214.27C280.399 214.535 280.798 214.668 281.298 214.668C281.993 214.668 282.559 214.43 282.997 213.953C283.434 213.469 283.653 212.859 283.653 212.125ZM302.853 217H299.162V210.332C299.162 208.473 298.498 207.543 297.17 207.543C296.529 207.543 296.002 207.789 295.588 208.281C295.173 208.773 294.966 209.398 294.966 210.156V217H291.263V205H294.966V206.898H295.013C295.896 205.438 297.181 204.707 298.869 204.707C301.525 204.707 302.853 206.355 302.853 209.652V217ZM316.979 217H313.475V215.277H313.428C312.623 216.621 311.432 217.293 309.854 217.293C308.69 217.293 307.772 216.965 307.1 216.309C306.436 215.645 306.104 214.762 306.104 213.66C306.104 211.332 307.483 209.988 310.241 209.629L313.498 209.195C313.498 207.883 312.787 207.227 311.366 207.227C309.936 207.227 308.577 207.652 307.287 208.504V205.715C307.803 205.449 308.506 205.215 309.397 205.012C310.295 204.809 311.112 204.707 311.846 204.707C315.268 204.707 316.979 206.414 316.979 209.828V217ZM313.498 212.125V211.316L311.319 211.598C310.116 211.754 309.514 212.297 309.514 213.227C309.514 213.648 309.659 213.996 309.948 214.27C310.245 214.535 310.643 214.668 311.143 214.668C311.838 214.668 312.405 214.43 312.842 213.953C313.28 213.469 313.498 212.859 313.498 212.125ZM332.874 215.629C332.874 217.855 332.23 219.578 330.941 220.797C329.652 222.023 327.784 222.637 325.339 222.637C323.722 222.637 322.441 222.406 321.495 221.945V218.828C322.73 219.547 323.976 219.906 325.234 219.906C326.484 219.906 327.452 219.574 328.14 218.91C328.827 218.254 329.171 217.359 329.171 216.227V215.277H329.124C328.28 216.621 327.034 217.293 325.386 217.293C323.855 217.293 322.64 216.754 321.741 215.676C320.843 214.598 320.394 213.152 320.394 211.34C320.394 209.309 320.894 207.695 321.894 206.5C322.894 205.305 324.21 204.707 325.843 204.707C327.304 204.707 328.398 205.27 329.124 206.395H329.171V205H332.874V215.629ZM329.218 211.234V210.285C329.218 209.527 328.991 208.883 328.538 208.352C328.093 207.812 327.511 207.543 326.792 207.543C325.972 207.543 325.327 207.863 324.859 208.504C324.39 209.145 324.155 210.047 324.155 211.211C324.155 212.211 324.378 213.004 324.823 213.59C325.269 214.168 325.878 214.457 326.652 214.457C327.417 214.457 328.034 214.164 328.503 213.578C328.98 212.984 329.218 212.203 329.218 211.234ZM347.949 212.055H340.121C340.246 213.797 341.344 214.668 343.414 214.668C344.734 214.668 345.895 214.355 346.895 213.73V216.402C345.785 216.996 344.344 217.293 342.57 217.293C340.633 217.293 339.129 216.758 338.059 215.688C336.988 214.609 336.453 213.109 336.453 211.188C336.453 209.195 337.031 207.617 338.188 206.453C339.344 205.289 340.766 204.707 342.453 204.707C344.203 204.707 345.555 205.227 346.508 206.266C347.469 207.305 347.949 208.715 347.949 210.496V212.055ZM344.516 209.781C344.516 208.062 343.82 207.203 342.43 207.203C341.836 207.203 341.32 207.449 340.883 207.941C340.453 208.434 340.191 209.047 340.098 209.781H344.516Z" fill="black"/>
<path d="M47.0586 205L42.5938 217H38.375L34.1211 205H38.082L40.168 212.395C40.4023 213.23 40.5391 213.941 40.5781 214.527H40.625C40.6797 213.973 40.8242 213.285 41.0586 212.465L43.1914 205H47.0586ZM60.3875 212.055H52.5594C52.6844 213.797 53.782 214.668 55.8523 214.668C57.1727 214.668 58.3328 214.355 59.3328 213.73V216.402C58.2234 216.996 56.782 217.293 55.0086 217.293C53.0711 217.293 51.5672 216.758 50.4969 215.688C49.4266 214.609 48.8914 213.109 48.8914 211.188C48.8914 209.195 49.4695 207.617 50.6258 206.453C51.782 205.289 53.2039 204.707 54.8914 204.707C56.6414 204.707 57.993 205.227 58.9461 206.266C59.907 207.305 60.3875 208.715 60.3875 210.496V212.055ZM56.9539 209.781C56.9539 208.062 56.2586 207.203 54.868 207.203C54.2742 207.203 53.7586 207.449 53.3211 207.941C52.8914 208.434 52.6297 209.047 52.5359 209.781H56.9539ZM71.6187 208.34C71.1734 208.098 70.6539 207.977 70.0602 207.977C69.2555 207.977 68.6266 208.273 68.1734 208.867C67.7203 209.453 67.4937 210.254 67.4937 211.27V217H63.7906V205H67.4937V207.227H67.5406C68.1266 205.602 69.1812 204.789 70.7047 204.789C71.0953 204.789 71.4 204.836 71.6187 204.93V208.34ZM76.5219 203.102C75.8969 203.102 75.3852 202.918 74.9867 202.551C74.5883 202.176 74.3891 201.719 74.3891 201.18C74.3891 200.625 74.5883 200.172 74.9867 199.82C75.3852 199.469 75.8969 199.293 76.5219 199.293C77.1547 199.293 77.6664 199.469 78.057 199.82C78.4555 200.172 78.6547 200.625 78.6547 201.18C78.6547 201.742 78.4555 202.203 78.057 202.562C77.6664 202.922 77.1547 203.102 76.5219 203.102ZM78.35 217H74.6469V205H78.35V217ZM90.4953 202.07C90.0187 201.883 89.5617 201.789 89.1242 201.789C87.9367 201.789 87.343 202.434 87.343 203.723V205H90.0852V207.73H87.343V217H83.6516V207.73H81.6359V205H83.6516V203.512C83.6516 202.145 84.0969 201.043 84.9875 200.207C85.8781 199.371 87.0891 198.953 88.6203 198.953C89.3703 198.953 89.9953 199.031 90.4953 199.188V202.07ZM104.996 205L100.121 217.961C98.9492 221.078 97.1836 222.637 94.8242 222.637C93.9258 222.637 93.1875 222.535 92.6094 222.332V219.379C93.1016 219.668 93.6367 219.812 94.2148 219.812C95.168 219.812 95.832 219.363 96.207 218.465L96.8398 216.977L91.9648 205H96.0664L98.3047 212.301C98.4453 212.754 98.5547 213.289 98.6328 213.906H98.6797C98.75 213.453 98.8789 212.926 99.0664 212.324L101.328 205H104.996Z" fill="black"/>
<path d="M229.262 19.7002C229.27 19.7029 229.278 19.7057 229.287 19.7085C230.229 20.0191 231.167 20.3398 232.101 20.6707C261.737 31.175 286.75 51.82 302.68 79.0038C318.61 106.188 324.396 138.1 319.075 169.09C318.907 170.068 318.728 171.045 318.537 172.021C318.536 172.028 318.535 172.034 318.534 172.041" stroke="black" stroke-width="3"/>
<path d="M269.665 252.899C269.659 252.905 269.652 252.911 269.646 252.917C268.922 253.596 268.192 254.266 267.454 254.928C244.049 275.924 213.952 288.008 182.459 288.988C150.967 289.967 120.177 279.776 95.5125 260.275C94.7339 259.659 93.9615 259.034 93.1954 258.4C93.1903 258.396 93.1852 258.392 93.1801 258.388" stroke="black" stroke-width="3"/>
<path d="M46.1826 170.863C46.181 170.855 46.1794 170.846 46.1778 170.837C45.9962 169.862 45.8257 168.885 45.6661 167.908C40.6015 136.875 46.6509 105.012 62.8049 77.9608C78.9589 50.9096 104.142 30.4721 133.864 20.2131C134.802 19.8893 135.745 19.5757 136.692 19.2722C136.698 19.2702 136.705 19.2682 136.711 19.2662" stroke="black" stroke-width="3"/>
</svg>
