<?xml version="1.0" encoding="UTF-8" standalone="no"?><!DOCTYPE svg PUBLIC "-//W3C//DTD SVG 1.1//EN" "http://www.w3.org/Graphics/SVG/1.1/DTD/svg11.dtd"><svg width="100%" height="100%" viewBox="0 0 161 108" version="1.1" xmlns="http://www.w3.org/2000/svg" xmlns:xlink="http://www.w3.org/1999/xlink" xml:space="preserve" xmlns:serif="http://www.serif.com/" style="fill-rule:evenodd;clip-rule:evenodd;stroke-linecap:round;stroke-linejoin:round;stroke-miterlimit:1.5;"><g><circle cx="80.666" cy="46.534" r="11.095" style="fill:none;stroke:#000;stroke-width:3px;"/><circle cx="80.666" cy="8.687" r="6.906" style="fill:none;stroke:#000;stroke-width:3px;"/><g><circle cx="144.821" cy="16.113" r="6.906" style="fill:none;stroke:#000;stroke-width:3px;"/><circle cx="151.653" cy="99.138" r="6.906" style="fill:none;stroke:#000;stroke-width:3px;"/><path d="M139.697,21.287l-38.913,34.012" style="fill:none;stroke:#000;stroke-width:3px;"/><path d="M126.776,63.17l-19.308,4.456" style="fill:none;stroke:#000;stroke-width:3px;"/><circle cx="134.276" cy="61.858" r="6.906" style="fill:none;stroke:#000;stroke-width:3px;"/><path d="M145.193,95.549l-33.715,-15.298" style="fill:none;stroke:#000;stroke-width:3px;"/></g><g><circle cx="15.606" cy="16.113" r="6.906" style="fill:none;stroke:#000;stroke-width:3px;"/><circle cx="8.774" cy="99.138" r="6.906" style="fill:none;stroke:#000;stroke-width:3px;"/><path d="M20.73,21.287l38.913,34.012" style="fill:none;stroke:#000;stroke-width:3px;"/><path d="M33.651,63.17l19.308,4.456" style="fill:none;stroke:#000;stroke-width:3px;"/><circle cx="26.151" cy="61.858" r="6.906" style="fill:none;stroke:#000;stroke-width:3px;"/><path d="M15.235,95.549l33.714,-15.298" style="fill:none;stroke:#000;stroke-width:3px;"/></g><path d="M80.666,15.593l0,15.595" style="fill:none;stroke:#000;stroke-width:3px;"/><path d="M58.166,92.426l0,-8.932c0,-12.263 10.08,-22.219 22.495,-22.219c12.415,-0 22.495,9.804 22.495,22.219c-0,0.067 0.01,8.932 0.01,8.932l-45,0Z" style="fill:none;stroke:#000;stroke-width:3px;"/></g></svg>