<?xml version="1.0" encoding="UTF-8" standalone="no"?><!DOCTYPE svg PUBLIC "-//W3C//DTD SVG 1.1//EN" "http://www.w3.org/Graphics/SVG/1.1/DTD/svg11.dtd"><svg width="100%" height="100%" viewBox="0 0 90 90" version="1.1" xmlns="http://www.w3.org/2000/svg" xmlns:xlink="http://www.w3.org/1999/xlink" xml:space="preserve" xmlns:serif="http://www.serif.com/" style="fill-rule:evenodd;clip-rule:evenodd;stroke-linejoin:round;stroke-miterlimit:2;"><g><rect x="0" y="0" width="90" height="90" style="fill:none;"/><clipPath id="_clip1"><rect x="0" y="11.812" width="90" height="66.378"/></clipPath><g clip-path="url(#_clip1)"><path d="M90,43.519l0,2.963c-0.028,0.161 -0.064,0.319 -0.082,0.479c-0.154,1.289 -0.253,2.586 -0.465,3.865c-0.692,4.158 -2.187,8.022 -4.409,11.595c-3.375,5.426 -7.937,9.563 -13.671,12.388c-3.309,1.638 -6.877,2.691 -10.545,3.112c-0.815,0.094 -1.629,0.178 -2.444,0.268l-31.617,0c-0.16,-0.03 -0.318,-0.077 -0.479,-0.087c-3.188,-0.201 -6.255,-0.927 -9.179,-2.206c-6.365,-2.786 -11.111,-7.3 -14.218,-13.513c-1.373,-2.741 -2.261,-5.698 -2.626,-8.742c-0.089,-0.74 -0.177,-1.479 -0.265,-2.218l0,-2.875c0.03,-0.159 0.077,-0.318 0.087,-0.478c0.165,-2.763 0.732,-5.445 1.729,-8.023c2.685,-6.936 7.366,-12.08 14.018,-15.41c3.451,-1.728 7.13,-2.636 10.977,-2.838c1.884,-0.098 3.766,0.008 5.639,0.259c0.169,0.023 0.414,-0.053 0.531,-0.174c2.693,-2.75 5.759,-4.984 9.216,-6.677c3.353,-1.643 6.882,-2.701 10.597,-3.125c0.874,-0.1 1.75,-0.182 2.626,-0.272l2.696,0c0.176,0.027 0.353,0.058 0.529,0.079c1.336,0.155 2.679,0.253 4.002,0.475c4.127,0.692 7.969,2.174 11.525,4.375c5.452,3.374 9.607,7.942 12.445,13.694c1.642,3.31 2.696,6.881 3.115,10.552c0.096,0.845 0.178,1.691 0.268,2.534m-50.322,-19.172c0.054,0.071 0.067,0.104 0.09,0.115c1.851,0.913 3.62,1.983 5.288,3.198c0.105,0.076 0.366,0.044 0.494,-0.036c4.583,-2.904 9.552,-3.906 14.89,-2.96c5.23,0.928 9.487,3.541 12.739,7.715c3.682,4.724 5.085,10.065 4.069,16.008c-0.681,3.983 -2.277,7.557 -4.989,10.55c-4.948,5.457 -11.144,7.714 -18.438,6.759c-4.491,-0.589 -8.367,-2.526 -11.575,-5.768c-4.118,-4.159 -8.262,-8.291 -12.392,-12.439c-0.55,-0.553 -1.163,-0.997 -1.955,-1.094c-1.385,-0.17 -2.641,0.521 -3.239,1.765c-0.533,1.11 -0.464,2.362 0.693,3.5c4.603,4.519 9.166,9.08 13.765,13.604c0.787,0.778 1.631,1.496 2.525,2.149c3.359,2.439 7.147,3.788 11.248,4.331c3.219,0.425 6.413,0.334 9.583,-0.379c6.046,-1.358 11.054,-4.444 14.999,-9.205c3.257,-3.935 5.226,-8.456 5.913,-13.533c0.398,-2.894 0.315,-5.835 -0.246,-8.703c-0.915,-4.688 -2.899,-8.884 -6.077,-12.455c-6.064,-6.81 -13.694,-9.85 -22.773,-9.171c-3.493,0.261 -6.797,1.286 -9.906,2.914c-1.677,0.871 -3.255,1.923 -4.706,3.135m-2.222,47.537c-0.125,-0.115 -0.249,-0.232 -0.373,-0.348c-1.882,-1.777 -3.775,-3.543 -5.635,-5.343c-0.36,-0.349 -0.691,-0.518 -1.201,-0.506c-1.883,0.046 -3.768,0.054 -5.625,-0.366c-9.229,-2.087 -14.589,-12.122 -11.187,-20.951c2.683,-6.963 10.11,-11.203 17.435,-9.895c3.283,0.586 6.164,1.975 8.529,4.415c2.885,2.977 5.855,5.87 8.771,8.817c0.663,0.672 1.426,0.977 2.345,0.846c1.188,-0.169 2.134,-0.735 2.564,-1.9c0.42,-1.147 0.217,-2.233 -0.652,-3.112c-3.06,-3.1 -6.047,-6.278 -9.231,-9.246c-6.175,-5.759 -13.456,-7.472 -21.509,-5.023c-10.832,3.291 -17.171,14.476 -14.697,25.513c2.256,10.056 11.051,17.114 21.342,17.123c2.873,0.003 5.747,0.002 8.621,0c0.142,0 0.284,-0.012 0.503,-0.024" style="fill:#da1f26;fill-rule:nonzero;"/></g></g></svg>