<svg xmlns="http://www.w3.org/2000/svg" viewBox="0 0 120.09 101.31"><defs><style>.cls-1{fill:#9b2e88;}.cls-2{fill:#66c7e9;}</style></defs><g id="Ebene_2" data-name="Ebene 2"><g id="Ebene_1-2" data-name="Ebene 1"><rect class="cls-1" width="120.09" height="101.31" rx="5.91"/><path class="cls-2" d="M101.23,89.65H61.35a4.84,4.84,0,0,1-4.84-4.84V36.42L23.63,85.76A4.89,4.89,0,0,1,20,87.88a5.57,5.57,0,0,1-4.45-1.57l-.43-.5a5.11,5.11,0,0,1-.29-6l42.4-63.63a5.35,5.35,0,0,1,4.13-2.39,5.6,5.6,0,0,1,4.57,2A4.87,4.87,0,0,1,67.1,19V79.06H95.48V16.32a4.66,4.66,0,0,1,4.65-4.66h1.34a4.61,4.61,0,0,1,4.6,4.61V84.81A4.84,4.84,0,0,1,101.23,89.65Z"/></g></g></svg>