<?xml version="1.0" encoding="UTF-8" standalone="no"?><!DOCTYPE svg PUBLIC "-//W3C//DTD SVG 1.1//EN" "http://www.w3.org/Graphics/SVG/1.1/DTD/svg11.dtd"><svg width="100%" height="100%" viewBox="0 0 90 90" version="1.1" xmlns="http://www.w3.org/2000/svg" xmlns:xlink="http://www.w3.org/1999/xlink" xml:space="preserve" xmlns:serif="http://www.serif.com/" style="fill-rule:evenodd;clip-rule:evenodd;stroke-linejoin:round;stroke-miterlimit:2;"><path d="M45,0c24.836,0 45,20.164 45,45c0,24.836 -20.164,45 -45,45c-24.836,0 -45,-20.164 -45,-45c0,-24.836 20.164,-45 45,-45Zm11.883,23.836l-17.649,42.328l-6.773,0l17.578,-42.328l6.844,0Zm-24.789,34.523l-23.414,-10.804l0,-3.797l23.414,-11.414l0,5.765l-16.782,7.43l0,0.141l16.782,6.914l0,5.765Zm49.226,-11.086l-23.414,10.805l0,-5.742l16.828,-6.891l0,-0.117l-16.828,-7.453l0,-5.766l23.414,11.368l0,3.796Z" style="fill:#366eff;"/></svg>